<?xml version="1.0" standalone="no"?>
<!DOCTYPE svg PUBLIC "-//W3C//DTD SVG 1.1//EN" "http://www.w3.org/Graphics/SVG/1.1/DTD/svg11.dtd" >
<svg xmlns="http://www.w3.org/2000/svg">
<metadata></metadata>
<defs>
<font id="houston_boldbold" horiz-adv-x="731" >
<font-face units-per-em="2048" ascent="1638" descent="-410" />
<missing-glyph horiz-adv-x="409" />
<glyph horiz-adv-x="2048" />
<glyph horiz-adv-x="2048" />
<glyph unicode="&#xd;" horiz-adv-x="2048" />
<glyph unicode=" "  horiz-adv-x="409" />
<glyph unicode="&#x09;" horiz-adv-x="409" />
<glyph unicode="&#xa0;" horiz-adv-x="409" />
<glyph unicode="!" horiz-adv-x="362" d="M59 33v168q0 21 15 24.5t92 3.5t92.5 -3.5t15.5 -24.5v-168q0 -23 -17.5 -28t-90.5 -5q-72 0 -89.5 5t-17.5 28zM61 432v973q0 21 15.5 25t89.5 4q76 0 92 -4t16 -25v-973q0 -24 -18 -29.5t-90 -5.5t-88.5 5.5t-16.5 29.5z" />
<glyph unicode="&#x22;" horiz-adv-x="491" d="M66 1083v320q0 21 10 25t59 4q47 0 57.5 -4t10.5 -25v-320q0 -21 -11 -25.5t-57 -4.5q-47 0 -58 4.5t-11 25.5zM287 1083v320q0 21 10 25t59 4q48 0 58 -4t10 -25v-320q0 -21 -11 -25.5t-57 -4.5q-47 0 -58 4.5t-11 25.5z" />
<glyph unicode="#" horiz-adv-x="987" d="M16 760q0 38 4.5 50.5t22.5 12.5h147l54 316h-166q-16 0 -20.5 12.5t-4.5 48.5q0 37 4.5 50.5t20.5 13.5h188l39 221q5 26 68 26q35 0 49 -5.5t10 -20.5l-37 -221h291l37 221q4 15 20 20.5t50 5.5q35 0 49.5 -5.5t11.5 -20.5l-39 -221h125q15 0 20 -14.5t5 -49.5t-5 -48 t-20 -13h-147l-56 -316h166q15 0 20 -13.5t5 -49.5q0 -35 -5 -49.5t-20 -14.5h-188l-39 -221q-3 -16 -17.5 -21t-50.5 -5q-38 0 -51 5t-10 21l39 221h-291l-39 -221q-1 -16 -16.5 -21t-53.5 -5q-36 0 -48 5t-11 21l41 221h-125q-18 0 -22.5 13.5t-4.5 50.5zM319 823h289 l56 316h-291z" />
<glyph unicode="$" horiz-adv-x="696" d="M51 1147q0 101 49.5 172.5t132.5 103.5q9 4 11 8.5t2 18.5v94q0 23 18 28t92 5t91.5 -5t17.5 -28v-100q0 -20 16 -27q76 -33 121 -103t45 -167v-111q0 -23 -17.5 -27.5t-92.5 -4.5q-72 0 -91.5 5.5t-19.5 28.5v125q0 32 -22 55t-54 23t-55 -23.5t-23 -54.5 q0 -65 10.5 -115.5t38 -97t50.5 -75.5t71 -82q98 -114 136 -177q102 -169 79 -370q-9 -87 -57 -148t-123 -90q-8 -2 -10 -5.5t-2 -16.5v-103q0 -18 -15.5 -21t-93.5 -3q-80 0 -95 3t-15 21v105q0 18 -13 28q-76 33 -120.5 103.5t-44.5 167.5v119q0 23 16.5 27.5t89.5 4.5 q76 0 93.5 -4.5t17.5 -27.5v-134q0 -32 22.5 -54.5t54.5 -22.5t55 22.5t23 54.5q5 49 -1.5 93.5t-17.5 76t-38 72t-45.5 63t-58.5 68.5q-95 111 -130 165q-98 152 -98 337z" />
<glyph unicode="%" horiz-adv-x="798" d="M57 1071v215q0 63 43 105.5t107 42.5q65 0 106 -42t41 -106v-215q0 -65 -41 -108t-106 -43q-64 0 -107 44t-43 107zM72 29l497 1368q6 23 21.5 30t64.5 7t62 -7.5t4 -29.5l-498 -1368q-7 -21 -19 -25t-65 -4q-54 0 -65 4t-2 25zM172 1092q0 -54 35 -54q33 0 33 54v174 q0 55 -33 55q-35 0 -35 -55v-174zM440 150v217q0 62 42.5 104.5t103.5 42.5q66 0 107.5 -42t41.5 -105v-217q0 -64 -42 -107t-107 -43q-61 0 -103.5 44t-42.5 106zM553 170q0 -55 33 -55q35 0 35 55v178q0 53 -35 53q-33 0 -33 -53v-178z" />
<glyph unicode="&#x26;" horiz-adv-x="851" d="M68 287q0 165 13 232t73 149q40 57 47 69q4 11 0 21q-62 127 -89.5 212t-27.5 177q0 136 77.5 217.5t194.5 81.5q116 0 193.5 -81.5t77.5 -217.5q0 -88 -41.5 -185.5t-145.5 -230.5q-7 -11 0 -22l101 -217q5 -5 10 -5q10 0 10 9q4 39 4 139q0 20 13 23.5t79 3.5 q62 0 77.5 -4.5t15.5 -22.5q0 -169 -12.5 -231.5t-53.5 -143.5l113 -231q11 -20 -0.5 -24.5t-91.5 -4.5q-76 0 -91.5 3.5t-27.5 25.5q-5 12 -35 69q-36 -52 -93 -80t-122 -28q-114 0 -191 80.5t-77 216.5zM254 276q0 -32 31.5 -56.5t70.5 -24.5q43 0 67.5 35t6.5 81 q-53 117 -78 166q-17 28 -37 68q-3 6 -10 6q-4 0 -8 -4q-24 -33 -32 -57t-11 -68v-146zM285 1163q0 -93 7.5 -135t41.5 -117q3 -6 8 -6q8 0 12 4q43 56 57.5 105.5t14.5 148.5q0 32 -20.5 55t-49.5 23q-30 0 -50.5 -22.5t-20.5 -55.5z" />
<glyph unicode="'" horiz-adv-x="260" d="M66 1083v320q0 21 10 25t59 4q47 0 57.5 -4t10.5 -25v-320q0 -21 -11 -25.5t-57 -4.5q-47 0 -58 4.5t-11 25.5z" />
<glyph unicode="(" horiz-adv-x="428" d="M72 117v1200q0 134 90 215.5t219 81.5q19 0 23 -15t4 -77q0 -61 -4 -75.5t-23 -14.5q-55 0 -83 -39.5t-28 -100.5v-1151q0 -61 27.5 -100t83.5 -39q19 0 23 -15t4 -77q0 -61 -4.5 -76.5t-22.5 -15.5q-129 0 -219 82t-90 217z" />
<glyph unicode=")" horiz-adv-x="428" d="M18 -90q0 62 4.5 77t24.5 15q55 0 82 38.5t27 100.5v1151q0 62 -27 101t-82 39q-20 0 -24.5 14.5t-4.5 75.5q0 62 4.5 77t24.5 15q128 0 218.5 -81.5t90.5 -215.5v-1200q0 -135 -90.5 -217t-218.5 -82q-20 0 -24.5 15.5t-4.5 76.5z" />
<glyph unicode="*" d="M100 1094.5q-3 16.5 15 25.5q17 9 50.5 25.5t51.5 25.5q3 3 0 9q0 2 -2 2l-44 22t-56 27q-18 9 -15 26.5t27 53.5q21 38 33.5 49t29.5 2q13 -11 28.5 -22t35.5 -23.5t31 -20.5h2q4 0 4 4q-2 37 -6 115q-1 20 13.5 25.5t59.5 5.5t60 -6t14 -25q-4 -78 -6 -115q0 -4 4 -4h4 q8 6 42.5 28.5t53.5 37.5q25 17 62 -51q23 -37 25.5 -54t-15.5 -26q-66 -32 -100 -49l-2 -2q0 -7 2 -9q40 -18 100 -51q18 -9 15.5 -25t-25.5 -53q-21 -36 -35 -47.5t-27 -1.5q-51 35 -98 64h-2q-4 0 -4 -6q2 -35 6 -113q1 -18 -14 -23.5t-60 -5.5q-44 0 -59 5.5t-14 23.5 q4 78 6 113q0 6 -4 6h-2q-61 -37 -95 -64q-16 -10 -28.5 0.5t-34.5 48.5q-24 36 -27 52.5z" />
<glyph unicode="+" horiz-adv-x="501" d="M45 522q0 32 5 45t20 13h110q6 0 6 4v112q0 15 13.5 21t46.5 6q31 0 43 -6t12 -21v-112q4 -4 10 -4h109q16 0 20 -12t4 -46q0 -36 -4 -47.5t-20 -11.5h-113q-3 0 -6 -6v-111q0 -15 -11.5 -19.5t-43.5 -4.5q-34 0 -47 5t-13 19v111q0 1 -2 3.5t-4 2.5h-110q-15 0 -20 13 t-5 46z" />
<glyph unicode="," horiz-adv-x="325" d="M51 31v170q0 21 15.5 24.5t93.5 3.5q76 0 91 -3.5t15 -24.5v-111q0 -54 -29.5 -119.5t-64.5 -107t-55 -41.5q-27 0 -35 4t-4 22q14 56 37 140q2 10 -7.5 13t-22 2.5t-23.5 5.5t-11 22z" />
<glyph unicode="-" horiz-adv-x="462" d="M39 522q0 48 4 58t25 10h319q21 0 26 -11.5t5 -56.5q0 -47 -5 -58t-26 -11h-319q-21 0 -25 10t-4 59z" />
<glyph unicode="." horiz-adv-x="333" d="M49 33v168q0 21 15 24.5t92 3.5q78 0 93 -3.5t15 -24.5v-168q0 -23 -17.5 -28t-90.5 -5q-72 0 -89.5 5t-17.5 28z" />
<glyph unicode="/" horiz-adv-x="524" d="M20 29q45 255 121 691t119 681q6 23 22.5 28t82.5 5t80 -5t10 -28q-142 -826 -240 -1372q-3 -21 -17.5 -25t-82.5 -4q-70 0 -84 4t-11 25z" />
<glyph unicode="0" d="M74 287v860q0 137 85 218t214 81q126 0 211.5 -81t85.5 -218v-860q0 -137 -85.5 -218t-211.5 -81q-129 0 -214 81t-85 218zM293 270q0 -32 23 -54.5t57 -22.5q31 0 54.5 22.5t23.5 54.5v893q0 32 -23.5 55t-54.5 23q-34 0 -57 -23t-23 -55v-893z" />
<glyph unicode="1" horiz-adv-x="626" d="M41 102q0 65 9 84t32 19h94q20 0 25.5 7t5.5 32v876q-1 20 -6 24.5t-17 -3.5q-7 -5 -47 -34.5t-47 -33.5q-15 -12 -24 -8t-9 22v115q0 24 3.5 33.5t15.5 21.5l86 80q18 20 28 49q6 17 14.5 26t35.5 15.5t75 6.5q75 0 92 -4.5t17 -26.5v-1159q0 -25 6.5 -32t30.5 -7h86 q23 0 32 -19.5t9 -83.5q0 -65 -8.5 -83.5t-32.5 -18.5h-465q-24 0 -32.5 18t-8.5 84z" />
<glyph unicode="2" horiz-adv-x="692" d="M53 43v317q0 50 14.5 98t45 96t55 79t68.5 82q43 49 66 76.5t54.5 74.5t46 86.5t23.5 94.5t4 116q-3 35 -25 56.5t-53 21.5q-33 0 -55.5 -22.5t-22.5 -55.5v-129q0 -22 -17 -26t-93 -4h-9q-69 0 -85.5 4t-16.5 26v113q0 125 87.5 212t211.5 87q130 0 210.5 -80t86.5 -219 q3 -55 -1.5 -103.5t-11.5 -86.5t-23.5 -77t-30.5 -65.5t-39.5 -62.5t-42.5 -57t-49 -60t-50 -62q-10 -13 -37.5 -47t-38 -48.5t-27 -39t-22.5 -42.5t-6 -36v-116q0 -25 6 -32t29 -7h289q25 0 35 -19.5t10 -83.5q0 -65 -10 -83.5t-35 -18.5h-492q-26 0 -37.5 10t-11.5 33z " />
<glyph unicode="3" horiz-adv-x="692" d="M72 287v116q0 23 17.5 28t90.5 5q75 0 94 -5t19 -28v-133q0 -32 22 -54.5t54 -22.5t54.5 22.5t22.5 54.5v344q0 34 -22 56t-55 22q-23 0 -45 -18q-13 -12 -29.5 -6t-67.5 43q-48 40 -58.5 57.5t1.5 28.5l238 381q10 17 2 34t-29 17h-252q-24 0 -33.5 19.5t-9.5 82.5 q0 65 9.5 84t33.5 19h477q49 0 49 -41v-113q0 -66 -20 -102l-170 -304q-11 -13 -9 -23.5t29 -14.5q83 -16 131 -75.5t48 -160.5v-313q0 -137 -84 -218t-211 -81q-124 0 -210.5 87t-86.5 212z" />
<glyph unicode="4" horiz-adv-x="677" d="M29 334v88q0 86 5.5 125.5t26.5 97.5q74 218 265 758q7 22 26.5 26.5t96.5 4.5h32q73 0 90 -4.5t17 -26.5v-899q1 -23 9 -28t38 -5q23 0 33 -19.5t10 -82.5t-10.5 -83t-34.5 -20q-28 0 -36 -5.5t-9 -27.5v-204q0 -21 -15.5 -25t-91.5 -4q-79 0 -95.5 4t-16.5 25v207 q-1 20 -8.5 25t-34.5 5h-236q-35 0 -48 16t-13 52zM246 508q2 -26 8.5 -31.5t38.5 -5.5h47q23 0 30 6.5t7 28.5q6 315 8 510q0 12 -10 12q-4 0 -10 -6l-95 -381q-2 -9 -6.5 -24.5t-6 -20.5t-4 -15.5t-3 -14t-2 -10t-1.5 -11t-0.5 -10t-0.5 -11.5v-16z" />
<glyph unicode="5" horiz-adv-x="702" d="M59 287v116q0 23 17.5 28t91.5 5t92.5 -5t18.5 -28v-133q0 -32 22.5 -54.5t56.5 -22.5q31 0 54.5 22.5t23.5 54.5v348q0 33 -21 55.5t-53 22.5q-34 0 -48.5 -10.5t-28.5 -36.5q-12 -18 -36 -24.5t-81 -6.5q-73 0 -91 5t-18 26v744q0 41 50 41h499q25 0 35 -19t10 -84 q0 -64 -10 -83t-35 -19h-280q-35 0 -43.5 -6.5t-8.5 -34.5v-289q0 -27 5.5 -38t19 -9t29 8.5t42 13.5t52.5 7q231 0 231 -273v-321q0 -137 -85 -218t-212 -81q-126 0 -212.5 87t-86.5 212z" />
<glyph unicode="6" horiz-adv-x="710" d="M68 287v860q0 137 84 218t210 81q123 0 211.5 -87.5t88.5 -211.5v-113q0 -22 -17 -26t-92 -4h-9q-70 0 -87 4t-17 26v129q0 32 -23 55t-55 23t-54.5 -23t-22.5 -55v-264q0 -27 5.5 -38t18 -9t27.5 8.5t40.5 13.5t49.5 7q236 0 236 -273v-321q0 -124 -88.5 -211.5 t-211.5 -87.5q-126 0 -210 81t-84 218zM285 270q0 -32 22.5 -54.5t54.5 -22.5t55 22.5t23 54.5v346q0 34 -23 57t-55 23t-54.5 -23t-22.5 -57v-346z" />
<glyph unicode="7" horiz-adv-x="647" d="M31 1331q0 64 10.5 83.5t34.5 19.5h497q48 0 48 -41v-82q0 -107 -25 -164q-31 -63 -65.5 -157t-78 -240.5t-71 -337.5t-27.5 -381q0 -21 -18 -26t-90 -5q-74 0 -93.5 5t-19.5 26q0 510 199 1069q0 1 8 20t14 37.5t6 32.5q0 24 -6.5 31.5t-25.5 7.5h-252q-24 0 -34.5 19.5 t-10.5 82.5z" />
<glyph unicode="8" d="M68 287v293q0 135 100 196q-100 48 -100 176v195q0 137 86 218t213 81t212 -81t85 -218v-195q0 -128 -101 -176q101 -61 101 -196v-293q0 -137 -85 -218t-212 -81t-213 81t-86 218zM289 270q0 -32 23 -54.5t55 -22.5q33 0 55 22t22 55v299q0 33 -22 54.5t-55 21.5 q-32 0 -55 -22t-23 -54v-299zM289 893q0 -32 23 -54t55 -22q33 0 55 21.5t22 54.5v270q0 33 -22 55.5t-55 22.5q-32 0 -55 -23t-23 -55v-270z" />
<glyph unicode="9" horiz-adv-x="710" d="M55 287v116q0 23 18 28t93 5q72 0 90 -5t18 -28v-133q0 -32 23.5 -54.5t54.5 -22.5q34 0 58 22.5t24 54.5v265q0 28 -5.5 39t-18.5 9.5t-28.5 -8t-42 -13.5t-52.5 -7q-232 0 -232 270v322q0 124 87.5 211.5t209.5 87.5q130 0 215.5 -81t85.5 -218v-860q0 -137 -85.5 -218 t-215.5 -81q-122 0 -209.5 87.5t-87.5 211.5zM274 819q0 -31 23.5 -54.5t54.5 -23.5q33 0 57.5 23.5t24.5 54.5v344q0 32 -24 55t-58 23q-31 0 -54.5 -23t-23.5 -55v-344z" />
<glyph unicode=":" horiz-adv-x="323" d="M49 33v168q0 21 15 24.5t92 3.5q75 0 89.5 -3.5t14.5 -24.5v-168q0 -23 -17 -28t-87 -5q-72 0 -89.5 5t-17.5 28zM49 524v166q0 24 15.5 28.5t91.5 4.5q74 0 89 -4.5t15 -28.5v-166q0 -23 -16.5 -27.5t-87.5 -4.5q-73 0 -90 4.5t-17 27.5z" />
<glyph unicode=";" horiz-adv-x="323" d="M49 20v170q0 20 15.5 23.5t91.5 3.5t92 -3.5t16 -23.5v-112q0 -54 -30 -119t-65.5 -106t-55.5 -41t-26.5 0.5t-11 6t-1.5 17.5q18 60 37 141q2 10 -7 12.5t-21.5 2t-23 6t-10.5 22.5zM49 514v166q0 23 15.5 27t91.5 4t92 -4t16 -27v-166q0 -24 -18 -29.5t-90 -5.5 t-89.5 5.5t-17.5 29.5z" />
<glyph unicode="&#x3c;" horiz-adv-x="555" d="M43 514q0 10 20 33l308 327q19 22 31 22t55 -22q41 -21 48 -31t-9 -28q-209 -223 -238 -254q-35 -40 -35 -47q0 -11 28 -43q5 -5 7 -8l238 -250q16 -18 9 -27t-48 -32q-42 -23 -54.5 -23t-31.5 21q-285 300 -308 327q-20 23 -20 35z" />
<glyph unicode="=" horiz-adv-x="524" d="M39 379q0 34 5 46.5t22 12.5h397q13 0 17.5 -13t4.5 -46t-4.5 -45t-17.5 -12h-397q-17 0 -22 12t-5 45zM39 680q0 34 5 46.5t22 12.5h397q13 0 17.5 -13t4.5 -46q0 -35 -4.5 -48.5t-17.5 -13.5h-397q-17 0 -22 13.5t-5 48.5z" />
<glyph unicode="&#x3e;" horiz-adv-x="555" d="M52 185.5q-7 9.5 7 27.5q211 219 240 250q35 42 37 51q0 7 -37 47l-240 254q-14 18 -6.5 28t47.5 31q41 22 53.5 22t32.5 -22q287 -300 310 -327q20 -23 20 -33q0 -12 -20 -35l-310 -327q-21 -21 -33.5 -21t-52.5 23q-41 22 -48 31.5z" />
<glyph unicode="?" horiz-adv-x="675" d="M59 1069v78q0 136 84.5 217.5t212.5 81.5q129 0 210 -75.5t81 -223.5v-117q0 -65 -20 -123t-42.5 -90.5t-64.5 -83.5q-18 -21 -31 -40t-21 -43t-13 -37.5t-7 -43.5t-2.5 -41t0 -50.5t0.5 -51.5q0 -21 -16.5 -25t-87.5 -4q-74 0 -91.5 5.5t-17.5 29.5v46q0 124 5.5 167.5 t31.5 91.5q10 16 65.5 86.5t72.5 112.5q24 63 24 227q0 32 -22.5 55t-53.5 23q-32 0 -56 -23t-24 -55v-94q0 -23 -17.5 -28t-90.5 -5q-74 0 -91.5 5t-17.5 28zM231 33v168q0 21 16 24.5t95 3.5q75 0 89.5 -3.5t14.5 -24.5v-168q0 -23 -17 -28t-87 -5q-74 0 -92.5 5t-18.5 28 z" />
<glyph unicode="@" horiz-adv-x="1134" d="M72 756q0 205 145 349t352 144q104 0 192.5 -31t157 -91.5t107.5 -158.5t39 -223q0 -75 -15.5 -129t-35 -80.5t-50.5 -41t-50.5 -17t-45.5 -2.5q-34 0 -60 8.5t-40 21t-23 25t-13.5 21t-6.5 8.5q-1 0 -5 -8.5t-14.5 -21t-26.5 -25t-47 -21t-71 -8.5q-55 0 -99 22 t-68.5 56t-37 70t-12.5 69v121q0 81 60.5 149t156.5 68q13 0 25.5 -1.5t21.5 -4t18.5 -6.5t15 -7t13.5 -9t10.5 -8t9 -8t7.5 -7q14 -17 14 2v33q0 16 37 16q49 0 49 -16v-312q0 -58 25.5 -89t52.5 -31q22 0 38 6t31.5 23.5t23.5 56t8 96.5q0 171 -111.5 277t-276.5 106 q-161 0 -277 -113.5t-116 -277.5q0 -159 116 -272t277 -113h146q13 0 17.5 -12.5t4.5 -43.5t-4.5 -44t-17.5 -13h-150q-136 0 -250.5 67t-180.5 181.5t-66 249.5zM444 692q0 -60 38 -89.5t79 -29.5t81 29.5t40 89.5v123q0 47 -31 84t-90 37q-58 0 -87.5 -40.5t-29.5 -80.5 v-123z" />
<glyph unicode="A" horiz-adv-x="681" d="M31 27q37 289 104.5 742t91.5 630q3 23 22.5 30t86.5 7q65 0 84 -7t22 -30q15 -106 87 -588t112 -784q1 -20 -13 -23.5t-87 -3.5q-74 0 -90 3.5t-19 23.5q-26 221 -29 272q-3 34 -8.5 41.5t-32.5 7.5h-53q-28 0 -34 -7.5t-9 -41.5q-11 -124 -28 -272q-3 -20 -19.5 -23.5 t-89.5 -3.5q-74 0 -88 4q-11 3 -11 15q0 4 1 8zM287 535q-1 -7 -1 -12q0 -15 4 -20q6 -7 29 -7h33q23 0 29 7q5 5 5 21q0 5 -1 11q-5 70 -20.5 215t-18.5 206q0 13 -10 13t-10 -13q-3 -61 -18.5 -206t-20.5 -215z" />
<glyph unicode="B" horiz-adv-x="745" d="M82 70v1296q0 37 13.5 53.5t47.5 16.5h234q137 0 216 -76.5t79 -224.5v-172q0 -97 -35.5 -145t-106.5 -64q-4 0 -4 -6q0 -5 4 -5q142 -58 142 -251v-193q0 -146 -79 -222.5t-216 -76.5h-234q-34 0 -47.5 16.5t-13.5 53.5zM301 248q0 -29 7 -35t40 -6h29q76 0 76 102v234 q0 104 -76 104h-29q-32 0 -39.5 -7t-7.5 -36v-356zM301 895q0 -30 7 -36.5t40 -6.5h29q76 0 76 104v170q0 105 -76 105h-29q-32 0 -39.5 -7t-7.5 -38v-291z" />
<glyph unicode="C" horiz-adv-x="694" d="M68 287v862q0 137 85 218t212 81q123 0 210 -88t87 -211v-113q0 -22 -18.5 -27t-92.5 -5q-72 0 -91.5 5.5t-19.5 26.5v129q0 31 -21.5 53.5t-53.5 22.5t-55 -22.5t-23 -53.5v-895q0 -31 23 -53t55 -22t53.5 22t21.5 53v131q0 24 18 29.5t91 5.5q76 0 94.5 -5.5 t18.5 -29.5v-114q0 -123 -87 -210t-210 -87q-127 0 -212 80.5t-85 216.5z" />
<glyph unicode="D" horiz-adv-x="745" d="M82 70v1296q2 37 15.5 53.5t47.5 16.5h232q138 0 217.5 -76.5t79.5 -224.5v-836q0 -146 -80 -222.5t-217 -76.5h-232q-34 0 -47.5 16.5t-15.5 53.5zM301 248q0 -28 7.5 -34.5t37.5 -6.5h31q76 0 76 102v817q0 105 -76 105h-31q-30 0 -37.5 -7.5t-7.5 -37.5v-938z" />
<glyph unicode="E" horiz-adv-x="634" d="M80 72v1294q2 37 15.5 53.5t47.5 16.5h422q19 0 24 -18t5 -85q0 -68 -5 -85t-24 -17h-217q-32 0 -39.5 -7t-7.5 -38v-291q0 -30 7 -36.5t40 -6.5h107q20 0 24 -16t4 -88q0 -69 -4 -85t-24 -16h-107q-32 0 -39.5 -7t-7.5 -36v-356q0 -29 7 -35t40 -6h217q19 0 24 -18 t5 -85q0 -68 -5 -86t-24 -18h-422q-34 0 -47.5 17.5t-15.5 54.5z" />
<glyph unicode="F" horiz-adv-x="602" d="M82 27v1339q0 37 14 53.5t49 16.5h420q20 0 24.5 -17t4.5 -86q0 -70 -4.5 -86t-24.5 -16h-215q-34 0 -41.5 -7t-7.5 -38v-291q0 -30 7.5 -36.5t41.5 -6.5h107q21 0 24.5 -15t3.5 -89q0 -71 -3.5 -86t-24.5 -15h-107q-34 0 -41.5 -7t-7.5 -36v-577q0 -20 -15.5 -23.5 t-92.5 -3.5q-78 0 -94.5 3.5t-16.5 23.5z" />
<glyph unicode="G" d="M68 287v862q0 137 86 218t213 81q124 0 210.5 -87.5t86.5 -211.5v-113q0 -22 -17.5 -27t-91.5 -5q-73 0 -92 5.5t-19 26.5v129q0 31 -22.5 53.5t-54.5 22.5t-55 -22.5t-23 -53.5v-895q0 -31 23 -53t55 -22t54.5 22t22.5 53v254q0 38 -6 48t-37 10q-24 0 -30 13.5t-6 68.5 q0 49 5 66.5t19 17.5h215q34 0 47 -16.5t15 -53.5v-643q0 -22 -18 -30.5t-46 -0.5q-10 2 -18.5 11t-14.5 20.5t-11 22t-10 16t-9 2.5q-2 -1 -11 -13t-21.5 -23t-32 -23t-50.5 -19.5t-70 -7.5q-129 0 -207.5 77.5t-78.5 219.5z" />
<glyph unicode="H" horiz-adv-x="759" d="M82 27v1378q0 21 18 26t93 5q73 0 89.5 -4.5t16.5 -26.5v-510q0 -30 8 -36.5t41 -6.5h78q33 0 40 6.5t7 36.5v510q0 21 18 26t93 5q71 0 87.5 -4.5t16.5 -26.5v-1378q0 -20 -14.5 -23.5t-89.5 -3.5q-79 0 -95 3.5t-16 23.5v577q0 29 -7.5 36t-39.5 7h-78q-33 0 -41 -7 t-8 -36v-577q0 -20 -14.5 -23.5t-91.5 -3.5q-79 0 -95 3.5t-16 23.5z" />
<glyph unicode="I" horiz-adv-x="382" d="M82 27v1378q0 21 19 26t94 5q72 0 89 -5t17 -26v-1378q0 -20 -15.5 -23.5t-90.5 -3.5q-79 0 -96 3.5t-17 23.5z" />
<glyph unicode="J" horiz-adv-x="673" d="M31 287v114q0 24 18 29.5t92 5.5t91.5 -5.5t17.5 -29.5v-131q0 -31 22.5 -53t55.5 -22q32 0 55 22t23 53v1135q0 21 18 26t92 5q73 0 91 -5t18 -26v-1118q0 -136 -85 -216.5t-212 -80.5t-212 80.5t-85 216.5z" />
<glyph unicode="K" horiz-adv-x="761" d="M82 27v1378q0 21 17 26t89 5q73 0 91 -5t18 -26v-514q0 -15 3 -22.5t7.5 -4t9.5 20.5l152 520q6 21 25.5 26t93.5 5q73 0 89.5 -5t10.5 -26l-160 -502q-17 -57 -17 -80t17 -88l197 -702q2 -6 2 -11q0 -13 -12 -17q-16 -5 -88 -5q-77 0 -99 5.5t-26 27.5l-135 549 q-5 13 -9 20.5t-10 12t-14 -6t-17 -35.5q-20 -43 -20 -90v-456q0 -20 -16 -23.5t-93 -3.5q-76 0 -91 3.5t-15 23.5z" />
<glyph unicode="L" horiz-adv-x="610" d="M80 70v1337q0 21 16 25t92 4q77 0 93 -4t16 -25v-1159q0 -29 7 -35t42 -6h205q20 0 25.5 -18t5.5 -87q0 -67 -5.5 -84.5t-25.5 -17.5h-406q-37 0 -51 16.5t-14 53.5z" />
<glyph unicode="M" horiz-adv-x="894" d="M80 27v1364q0 27 16.5 36t81.5 9q45 0 69 -8.5t30 -18.5t14 -33q11 -25 145 -440h2q0 -6 8 -6q9 0 9 6q139 410 147 440q7 23 14.5 33t31.5 18.5t69 8.5q65 0 81.5 -9t16.5 -36v-1364q0 -20 -16.5 -23.5t-93.5 -3.5q-76 0 -92.5 3.5t-16.5 23.5v817q0 16 -16 16 q-7 0 -15 -16q-19 -85 -73 -273q-5 -24 -12 -30t-36 -6q-27 0 -33.5 6t-11.5 30q-30 106 -71 273q-4 16 -17 16q-10 0 -10 -16v-817q0 -20 -17.5 -23.5t-95.5 -3.5q-77 0 -92.5 3.5t-15.5 23.5z" />
<glyph unicode="N" horiz-adv-x="792" d="M82 27v1364q0 27 17 36t81 9q46 0 70 -8.5t30 -18t13 -33.5l178 -653q6 -12 14 -12q13 0 13 12v684q0 21 15.5 25t92.5 4q78 0 94.5 -4t16.5 -25v-1362v-9v-8.5t-0.5 -6.5t-2.5 -6t-4.5 -4.5t-7 -4t-10.5 -2.5t-14 -2.5t-18.5 -1t-24.5 -0.5q-46 0 -70.5 8t-31.5 18 t-13 31l-194 707q-6 14 -15 14q-12 0 -12 -12v-739q0 -20 -15 -23.5t-89 -3.5q-80 0 -96.5 3.5t-16.5 23.5z" />
<glyph unicode="O" d="M61 287v862q0 137 85 218t214 81q127 0 212 -81t85 -218v-862q0 -136 -85 -216.5t-212 -80.5q-128 0 -213.5 80.5t-85.5 216.5zM283 270q0 -31 22.5 -53t54.5 -22t54 22t22 53v895q0 31 -22 53.5t-54 22.5t-54.5 -22.5t-22.5 -53.5v-895z" />
<glyph unicode="P" horiz-adv-x="729" d="M82 1366q2 37 15.5 53.5t47.5 16.5h232q139 0 218 -76.5t79 -222.5v-295q0 -147 -79 -224t-218 -77q-40 0 -58 -7t-18 -34v-471q0 -21 -16 -25t-95 -4q-76 0 -91 4t-15 25zM301 791q0 -26 4 -34.5t19 -8.5h53q78 0 78 102v274q0 107 -78 107h-29q-33 0 -40 -6t-7 -35 v-399z" />
<glyph unicode="Q" horiz-adv-x="729" d="M68 287v862q0 137 84.5 218t212.5 81q127 0 212 -81t85 -218v-862q0 -97 -46 -168.5t-124 -106.5q-12 -3 -17 -7t-4 -11q0 -45 29 -66.5t78 -21.5q17 0 20.5 -12.5t3.5 -67.5q0 -56 -3.5 -69t-20.5 -13q-314 0 -330 238q-3 26 -21 36q-74 33 -116.5 103t-42.5 166z M285 270q0 -31 24 -53t56 -22t54.5 22t22.5 53v895q0 31 -22.5 53.5t-54.5 22.5t-56 -22.5t-24 -53.5v-895z" />
<glyph unicode="R" horiz-adv-x="737" d="M82 27v1339q2 37 15.5 53.5t47.5 16.5h232q140 0 219.5 -76t79.5 -225v-172q0 -97 -35.5 -145t-105.5 -64q-7 0 -7 -6q0 -5 7 -5q141 -59 141 -251v-465q0 -20 -17 -23.5t-96 -3.5q-75 0 -91.5 3.5t-16.5 23.5v516q0 104 -105 104q-35 0 -42 -6.5t-7 -36.5v-577 q0 -20 -17.5 -23.5t-95.5 -3.5q-74 0 -90 3.5t-16 23.5zM301 895q0 -31 7 -37t42 -6h27q78 0 78 104v170q0 105 -78 105h-27q-34 0 -41.5 -7t-7.5 -38v-291z" />
<glyph unicode="S" horiz-adv-x="696" d="M39 1149q0 137 84.5 218t210.5 81q129 0 214 -81t85 -218v-113q0 -22 -18.5 -27t-92.5 -5q-72 0 -91 5.5t-19 28.5v127q0 31 -22.5 53.5t-55.5 22.5q-30 0 -53 -23t-25 -53q0 -53 9.5 -99t20.5 -76t39 -70t44.5 -60t58.5 -67q23 -25 34.5 -38.5t33.5 -40t34 -44.5t31 -46 t29 -51t23 -53.5t19.5 -60.5t11.5 -64q5 -31 4 -64v-7q0 -37 -5 -76q-12 -120 -94.5 -189t-200.5 -69q-129 0 -212 80t-83 217v114q0 24 17.5 29.5t91.5 5.5q73 0 89.5 -5.5t16.5 -29.5v-131q0 -31 24 -53t56 -22t56 22t24 53q2 21 2 42q0 28 -4 52q-6 44 -17.5 76t-39 73 t-46.5 64.5t-59 69.5q-44 49 -65 74.5t-57.5 79t-54.5 98t-33 111t-15 139.5z" />
<glyph unicode="T" horiz-adv-x="657" d="M31 1333q0 73 3.5 88t24.5 15h539q21 0 26 -17t5 -86q0 -70 -4.5 -86t-26.5 -16h-90q-44 0 -56 -7t-12 -40v-1157q0 -20 -16.5 -23.5t-95.5 -3.5q-76 0 -92.5 3.5t-16.5 23.5v1128h-2q0 57 -8.5 66.5t-58.5 9.5h-91q-21 0 -24.5 14t-3.5 88z" />
<glyph unicode="U" d="M68 287v1118q0 21 18 26t92 5q72 0 90.5 -5t18.5 -26v-1135q0 -31 23 -53t55 -22t55.5 22t23.5 53v1135q0 21 18 26t91 5t92 -5t19 -26v-1118q0 -136 -86 -216.5t-213 -80.5t-212 80.5t-85 216.5z" />
<glyph unicode="V" horiz-adv-x="679" d="M31 1405q-1 5 -1 9t1 6q2 6 13.5 10t32.5 5t60 1q71 0 89.5 -5.5t21.5 -25.5q9 -63 40 -422.5t36 -447.5q4 -15 10 -15q12 0 12 15q3 77 34.5 432t41.5 438q1 14 9 20t30.5 8.5t75.5 2.5q38 0 58.5 -1t31.5 -5t13 -10q1 -3 2 -7q0 -4 -1 -8q-26 -185 -62.5 -457.5 t-66.5 -489.5t-61 -421q-5 -23 -25.5 -30t-91.5 -7q-69 0 -89.5 7.5t-23.5 29.5q-31 204 -61 421t-66.5 489.5t-62.5 457.5z" />
<glyph unicode="W" horiz-adv-x="843" d="M29 1403q0 21 16.5 27t85.5 6q68 0 87 -6t22 -27q1 -11 31 -454.5t30 -512.5q0 -12 8 -12q10 0 13 12q3 36 11.5 159t17 223.5t14.5 137.5q3 19 15 23t50 4q37 0 50 -4t16 -23q7 -37 15 -137t16.5 -223.5t11.5 -159.5q0 -12 12 -12q8 0 8 12q0 40 9.5 190.5t20 301 t22 306.5t12.5 169q2 20 21.5 26.5t86.5 6.5q71 0 87 -6q14 -5 13 -21v-6q-78 -1033 -108 -1366q-2 -23 -20.5 -30t-84.5 -7q-65 0 -84 7t-22 30q-53 250 -70 356q-3 10 -12 10t-12 -10q-9 -65 -21.5 -130t-27 -131.5t-19.5 -94.5q-3 -22 -22.5 -29.5t-85.5 -7.5 q-64 0 -82.5 7t-20.5 30q-10 113 -110 1366z" />
<glyph unicode="X" horiz-adv-x="686" d="M31 45l186 690l-180 658q-5 25 15 34t89 9q55 0 81 -5t32 -12.5t10 -25.5q47 -267 62 -359q3 -16 14 -16q14 0 14 16q18 109 64 359q2 18 8 25.5t32 12.5t81 5q70 0 90.5 -9t15.5 -34l-180 -658l184 -690q1 -6 1 -11q0 -18 -14 -24q-20 -8 -93 -8q-55 0 -80 4.5 t-31.5 11.5t-9.5 25q-49 280 -70 381q-5 10 -12 10q-8 0 -12 -12q-25 -124 -72 -379q-3 -26 -21.5 -33.5t-99.5 -7.5q-69 0 -89 9q-16 7 -16 25q0 4 1 9z" />
<glyph unicode="Y" horiz-adv-x="651" d="M31 1393q-1 6 -1 11q0 17 12 24q17 8 87 8q54 0 79 -5t30.5 -12t9.5 -26l65 -506q0 -8 11 -8q9 0 12 8l65 506q2 19 7 26t30.5 12t81.5 5q69 0 86 -8q13 -7 13 -24q0 -5 -1 -11l-163 -717q-21 -105 -21 -172v-477q0 -20 -16 -23.5t-94 -3.5q-77 0 -93 3.5t-16 23.5v477 q0 72 -20 172z" />
<glyph unicode="Z" horiz-adv-x="614" d="M49 43v82q0 81 5 127t24 92l258 811q9 27 9 46q0 40 -42 40h-207q-21 0 -24.5 14.5t-3.5 83.5q0 67 3.5 82t24.5 15h426q33 0 40 -6.5t7 -36.5v-84q0 -71 -3 -90.5t-23 -69.5l-262 -838q-13 -37 -14 -65t5 -39.5t15 -11.5h250q18 0 22 -16.5t4 -82.5t-4 -81t-22 -15h-441 q-33 0 -40 6.5t-7 36.5z" />
<glyph unicode="[" horiz-adv-x="432" d="M72 -145v1726q0 23 18.5 28t91.5 5h201q19 0 23 -15t4 -77q0 -61 -4 -75.5t-23 -14.5h-45q-31 0 -38 -6.5t-7 -36.5v-1344q0 -29 7 -35t38 -6h45q19 0 23 -15t4 -77t-4 -76t-23 -14h-201q-74 0 -92 4.5t-18 28.5z" />
<glyph unicode="\" horiz-adv-x="522" d="M41 1393q-4 21 25.5 30t70.5 9q105 0 109 -21q43 -250 117 -690t118 -694q1 -9 -5.5 -14.5t-20.5 -8t-26.5 -3.5t-31.5 -1q-113 0 -118 31q-156 880 -238 1362z" />
<glyph unicode="]" horiz-adv-x="432" d="M16 -88q0 62 4 77t23 15h45q32 0 38.5 6t6.5 35v1344q0 31 -6.5 37t-38.5 6h-45q-19 0 -23 14.5t-4 75.5q0 62 4 77t23 15h201q75 0 93.5 -5t18.5 -28v-1726q0 -24 -17.5 -28.5t-94.5 -4.5h-201q-19 0 -23 14t-4 76z" />
<glyph unicode="^" horiz-adv-x="698" d="M94 1602.5q-2 16.5 12 29.5l197 150q16 12 29 12q10 0 26 -12l199 -150q11 -8 13.5 -18.5t-2 -24t-17.5 -39.5q-19 -40 -31.5 -51.5t-27.5 0.5l-125 109q-20 20 -35 20q-12 0 -37 -20l-123 -109q-15 -12 -27 0t-30 51q-19 36 -21 52.5z" />
<glyph unicode="_" horiz-adv-x="575" d="M-8 -158q0 35 4 47.5t18 12.5h549q14 0 18.5 -13t4.5 -47t-4.5 -45.5t-18.5 -11.5h-549q-14 0 -18 11.5t-4 45.5z" />
<glyph unicode="`" horiz-adv-x="698" d="M146.5 1675q2.5 16 23.5 51q20 36 34 47t32 1l247 -148q18 -12 15.5 -28.5t-23.5 -51.5q-18 -37 -31.5 -48t-31.5 -1l-250 150q-18 12 -15.5 28z" />
<glyph unicode="a" horiz-adv-x="706" d="M51 268v451q0 131 63 203.5t162 72.5q41 0 81.5 -18t68.5 -49q6 -8 14 -4l4 8l2 22q3 20 20 24.5t81 4.5q75 0 88.5 -4t13.5 -27v-921q0 -23 -13.5 -27t-88.5 -4q-64 0 -81 4.5t-20 24.5l-2 24l-4 8q-8 4 -14 -2q-27 -33 -67.5 -52t-82.5 -19q-99 0 -162 74t-63 206z M270 281q0 -33 23.5 -56.5t56.5 -23.5q32 0 56 24t24 56v424q0 33 -23.5 55t-56.5 24q-34 -2 -57 -24t-23 -55v-424z" />
<glyph unicode="b" horiz-adv-x="708" d="M61 31v1368q0 23 19 28t94 5q72 0 90.5 -5t18.5 -28v-455q0 -7 6 -10t10 4q60 57 135 57q41 0 79 -15t71.5 -46t54 -86.5t20.5 -128.5v-451q0 -132 -63.5 -206t-161.5 -74q-89 0 -147 71q-6 6 -15 2l-4 -8l-4 -24q-3 -20 -19 -24.5t-79 -4.5q-76 0 -90.5 4t-14.5 27z M283 281q0 -33 22.5 -56.5t54.5 -23.5t56 24t24 56v424q0 33 -23.5 55t-56.5 24q-33 -2 -55 -24t-22 -55v-424z" />
<glyph unicode="c" horiz-adv-x="675" d="M51 299v387q0 142 85 225.5t212 83.5q126 0 212.5 -82.5t86.5 -205.5q0 -29 -20.5 -34t-118.5 -5q-53 0 -63 3.5t-13 24.5q-7 52 -28 70t-62 18q-27 0 -48.5 -21.5t-21.5 -57.5v-424q0 -36 21.5 -58t48.5 -22q41 0 62 18t28 70q3 20 13.5 24t62.5 4q97 0 118 -5t21 -33 q0 -123 -86.5 -207t-212.5 -84q-127 0 -212 84.5t-85 226.5z" />
<glyph unicode="d" horiz-adv-x="706" d="M51 268v451q0 73 20 128.5t53.5 86.5t71.5 46t78 15q82 0 136 -57q7 -7 12 -4q6 3 6 10v455q0 23 18.5 28t92.5 5t92 -5t18 -28v-1368q0 -23 -14 -27t-90 -4q-63 0 -80 4.5t-21 24.5l-2 24l-4 8q-8 4 -14 -2q-26 -33 -66.5 -52t-83.5 -19q-97 0 -160 74t-63 206zM268 281 q0 -32 24 -56t58 -24q32 0 55 24t23 56v424q0 33 -22.5 55t-55.5 24q-34 -2 -58 -24t-24 -55v-424z" />
<glyph unicode="e" horiz-adv-x="696" d="M51 299v387q0 142 84.5 225.5t210.5 83.5q127 0 214 -83t87 -205v-213q0 -31 -6.5 -37t-40.5 -6h-281q-33 0 -40 -7t-7 -38v-125q0 -36 21 -58t47 -22q41 0 62 18t28 70q3 20 13.5 24t62.5 4q99 0 121 -5t22 -33q0 -123 -88.5 -207t-214.5 -84t-210.5 84.5t-84.5 226.5z M272 641q0 -27 19 -35t57 -8q40 0 61 8t21 35v64q0 34 -23 56.5t-57 22.5q-32 0 -55 -23t-23 -56v-64z" />
<glyph unicode="f" horiz-adv-x="477" d="M20 891q0 64 5.5 78t27.5 14q34 0 41.5 6.5t7.5 38.5v78q0 149 91.5 237.5t226.5 88.5q23 0 28 -15.5t5 -87.5q0 -74 -5 -92t-28 -18q-36 0 -67 -27t-31 -62v-102q0 -32 7.5 -38.5t41.5 -6.5h59q20 0 26.5 -15.5t6.5 -76.5q0 -64 -6.5 -80t-26.5 -16h-59q-31 0 -40 -13.5 t-9 -46.5v-704q0 -23 -16.5 -27t-94.5 -4q-76 0 -92.5 4t-16.5 27v704q0 33 -9 46.5t-40 13.5q-22 0 -27.5 14.5t-5.5 81.5z" />
<glyph unicode="g" horiz-adv-x="706" d="M51 -125q0 29 20.5 34t118.5 5q54 0 64.5 -4.5t13.5 -26.5q6 -50 26.5 -68t61.5 -18q27 0 49.5 21.5t22.5 58.5v162q0 7 -6 10q-2 2 -10 -2q-59 -59 -138 -59q-41 0 -79 15.5t-71 47t-53 87.5t-20 130v451q0 131 62.5 203.5t160.5 72.5q88 0 152 -67q5 -8 12 -4 q0 1 1 3.5t1 4.5l4 22q4 20 20.5 24.5t80.5 4.5q75 0 88.5 -4t13.5 -27v-1058q0 -141 -85 -225.5t-212 -84.5q-126 0 -212.5 83.5t-86.5 207.5zM270 281q0 -33 22.5 -56.5t55.5 -23.5q34 0 58 24t24 56v424q0 33 -24 55t-58 24q-34 -2 -56 -24t-22 -55v-424z" />
<glyph unicode="h" horiz-adv-x="718" d="M61 31v1368q0 23 19 28t94 5q72 0 90.5 -5t18.5 -28v-455q0 -7 6 -10q5 -3 12 4q57 57 135 57q40 0 78 -15t71.5 -46t53.5 -86.5t20 -128.5v-688q0 -23 -15.5 -27t-94.5 -4q-77 0 -93 4t-16 27v674q0 33 -22.5 55t-55.5 24q-33 -2 -56 -24t-23 -55v-674q0 -23 -16.5 -27 t-92.5 -4q-79 0 -96 4t-17 27z" />
<glyph unicode="i" horiz-adv-x="362" d="M51 8v918q0 24 18.5 29.5t92.5 5.5q73 0 90.5 -5.5t17.5 -29.5v-918q0 -23 -15.5 -27t-92.5 -4q-78 0 -94.5 4t-16.5 27zM51 1126v174q0 24 18 29.5t93 5.5t92.5 -5.5t17.5 -29.5v-174q0 -21 -15 -24.5t-95 -3.5t-95.5 3.5t-15.5 24.5z" />
<glyph unicode="j" horiz-adv-x="362" d="M-59 -311q0 76 5 94t29 18q37 0 68 25t31 59v1063q0 24 17.5 29.5t90.5 5.5q74 0 92.5 -5.5t18.5 -29.5v-1038q0 -148 -92 -237t-226 -89q-24 0 -29 16t-5 89zM72 1149v174q0 24 17.5 29.5t92.5 5.5t93 -5.5t18 -29.5v-174q0 -21 -16 -25t-95 -4q-78 0 -94 4t-16 25z" />
<glyph unicode="k" horiz-adv-x="698" d="M61 31v1368q0 23 18.5 28t92.5 5t92.5 -5t18.5 -28v-735q0 -11 8 -11q5 0 8 6l111 293q9 23 26.5 27t95.5 4q81 0 99.5 -4.5t9.5 -26.5l-145 -323q-9 -20 -13 -30t-3.5 -31t9.5 -46l187 -491q3 -9 3 -15q-1 -10 -9 -12q-14 -4 -92 -4q-77 0 -95.5 4.5t-27.5 26.5 l-125 352q-15 44 -31 8l-8 -18q-8 -18 -8 -64v-278q0 -23 -16.5 -27t-94.5 -4t-94.5 4t-16.5 27z" />
<glyph unicode="l" horiz-adv-x="362" d="M72 31v1368q0 23 18 28t92 5q75 0 92 -5t17 -28v-1368q0 -23 -15.5 -27t-93.5 -4t-94 4t-16 27z" />
<glyph unicode="m" horiz-adv-x="1028" d="M61 31v917q0 24 16 29.5t81 5.5q66 0 82 -5.5t16 -29.5v-45q0 -2 2 -2l2 2q25 39 71.5 65.5t102.5 26.5q104 0 166 -92q65 92 170 92q84 0 137 -46t60 -148v-770q0 -23 -16 -27t-93 -4q-79 0 -96 4t-17 27v674q0 79 -59 79q-63 0 -63 -79v-674q0 -23 -16 -27t-93 -4 q-79 0 -95 4t-16 27v674q0 79 -61 79q-63 0 -63 -79v-674q0 -23 -16 -27t-93 -4t-93 4t-16 27z" />
<glyph unicode="n" horiz-adv-x="718" d="M61 31v917q0 24 16.5 29.5t82.5 5.5t82 -5.5t16 -29.5v-45q0 -2 2 -2t2 2q58 92 168 92q232 0 232 -309v-655q0 -23 -16 -27t-95 -4q-76 0 -92.5 4t-16.5 27v674q0 33 -24 56t-58 23q-32 0 -54.5 -22.5t-22.5 -56.5v-674q0 -23 -17 -27t-96 -4q-76 0 -92.5 4t-16.5 27z " />
<glyph unicode="o" horiz-adv-x="698" d="M51 299v387q0 142 85 225.5t212 83.5q128 0 213.5 -83.5t85.5 -225.5v-387q0 -142 -86 -226.5t-213 -84.5t-212 84.5t-85 226.5zM266 281q0 -34 24 -57t58 -23q33 0 56.5 23.5t23.5 56.5v424q0 33 -23.5 56t-56.5 23q-34 0 -58 -23t-24 -56v-424z" />
<glyph unicode="p" horiz-adv-x="708" d="M61 -375v1327q0 23 14.5 27t90.5 4q62 0 78 -4.5t20 -24.5l4 -22l4 -8q9 -5 15 4q60 67 149 67q97 0 159 -72.5t62 -203.5v-451q0 -141 -66.5 -210.5t-154.5 -69.5q-81 0 -137 59q-5 5 -10 2q-6 -3 -6 -10v-414q0 -24 -18.5 -29.5t-94.5 -5.5q-73 0 -91 5.5t-18 29.5z M283 281q0 -33 22.5 -56.5t54.5 -23.5q34 0 58 24t24 56v424q0 33 -24 55t-58 24q-33 -2 -55 -24t-22 -55v-424z" />
<glyph unicode="q" horiz-adv-x="708" d="M51 268v451q0 131 62.5 203.5t160.5 72.5q44 0 85 -18t67 -49q5 -8 12 -4q4 4 4 8l4 22q4 20 20.5 24.5t80.5 4.5q75 0 88.5 -4t13.5 -27v-1327q0 -24 -17.5 -29.5t-90.5 -5.5q-75 0 -93 5.5t-18 29.5v414q0 4 -6 10q-4 2 -12 -2q-56 -59 -138 -59q-40 0 -78 15.5 t-71.5 47t-53.5 88t-20 129.5zM268 281q0 -32 24 -56t58 -24q33 0 56.5 23.5t23.5 56.5v424q0 33 -23 55t-57 24q-34 -2 -58 -24t-24 -55v-424z" />
<glyph unicode="r" horiz-adv-x="481" d="M61 31v917q0 24 16 29.5t81 5.5q66 0 82 -5.5t16 -29.5v-45q0 -2 2 -2l2 2q25 40 71 66t103 26q20 0 23.5 -11.5t3.5 -72.5q0 -79 -6 -107t-29 -28q-47 0 -78.5 -14t-45 -37.5t-18.5 -42.5t-5 -41v-610q0 -23 -16 -27t-93 -4t-93 4t-16 27z" />
<glyph unicode="s" horiz-adv-x="651" d="M41 279q0 28 21 33t120 5q52 0 62.5 -4t13.5 -24q6 -52 27 -70t63 -18q26 0 48 21.5t22 58.5t-19.5 63.5t-51 44.5t-69.5 34.5t-75.5 39.5t-69 53.5t-51 82.5t-19.5 120q0 129 80 202.5t195 73.5q119 0 201 -83t82 -205q0 -29 -20 -34t-114 -5q-52 0 -61 3.5t-12 24.5 q-6 53 -23 70.5t-55 17.5q-26 0 -50 -19t-24 -50q0 -27 20 -50t52.5 -41.5t71 -38.5t77.5 -48t71.5 -63t52.5 -89.5t20 -122.5q0 -114 -81.5 -194t-203.5 -80q-126 0 -213.5 84t-87.5 207z" />
<glyph unicode="t" horiz-adv-x="495" d="M20 891q0 64 5.5 78t27.5 14q31 0 40 13.5t9 47.5v68q0 23 16.5 27t92.5 4q79 0 95 -4t16 -27v-68q0 -34 9 -47.5t40 -13.5h59q23 0 30 -15t7 -77q0 -64 -7 -80t-30 -16h-59q-34 0 -41.5 -6.5t-7.5 -36.5v-461q0 -34 31 -60t69 -26q23 0 28 -18.5t5 -92.5t-5 -90t-28 -16 q-136 0 -228 88.5t-92 236.5v439q0 30 -7.5 36.5t-41.5 6.5q-22 0 -27.5 14.5t-5.5 81.5z" />
<glyph unicode="u" horiz-adv-x="708" d="M51 299v653q0 23 16.5 27t94.5 4t94 -4t16 -27v-671q0 -34 23 -57t57 -23t58 23t24 57v671q0 23 15.5 27t91.5 4q77 0 92.5 -4t15.5 -27v-917q0 -24 -15.5 -29.5t-80.5 -5.5q-66 0 -82 5.5t-16 29.5v47v2q-2 0 -2 -2q-25 -41 -68 -67.5t-98 -26.5q-236 0 -236 311z" />
<glyph unicode="v" horiz-adv-x="643" d="M20 948v7q0 19 14 23q17 6 91 5q72 0 91.5 -5.5t23.5 -29.5l65 -598q0 -16 17 -16q13 0 16 16l63 598q4 24 23 29.5t94 5.5q74 1 90 -5q13 -4 14 -21q0 -4 -1 -9l-175 -917q-4 -23 -21 -27t-93 -4h-10h-11q-77 0 -93.5 4t-20.5 27z" />
<glyph unicode="w" horiz-adv-x="837" d="M20 948q-1 5 -1 9q0 17 12 21q15 6 78 5q64 0 80.5 -5.5t19.5 -29.5l61 -555q0 -12 13 -12q9 0 12 12l49 555q1 24 14 29.5t64 5.5q52 0 64.5 -5.5t15.5 -29.5l47 -555q3 -12 12 -12q12 0 12 12l60 555q4 24 20.5 29.5t79.5 5.5q65 0 79 -5q12 -4 12 -22q0 -4 -1 -8 l-139 -917q-4 -23 -18 -27t-80 -4h-2q-64 0 -77.5 4t-17.5 27l-55 366q0 5 -4 9t-8 4q-8 0 -12 -13l-56 -366q-3 -23 -15.5 -27t-78.5 -4h-2q-66 0 -80.5 4t-17.5 27z" />
<glyph unicode="x" horiz-adv-x="653" d="M23 35l149 407q10 28 10 58q0 33 -12 67l-139 383q-9 23 7 28t91 5q73 0 94 -5.5t27 -29.5l61 -256q0 -10 8 -10t11 10l61 256q6 24 27 29.5t96 5.5q72 0 87.5 -5t8.5 -28l-139 -383q-13 -38 -13 -71q0 -28 9 -54l149 -407q3 -9 3 -15q1 -10 -9 -14q-16 -6 -90 -6 q-71 0 -86 5t-24 30l-80 264q-3 10 -11 10t-8 -10l-78 -264q-9 -25 -25 -30t-87 -5q-73 0 -89 6q-11 4 -11 16q0 6 2 13z" />
<glyph unicode="y" horiz-adv-x="673" d="M20 948q-1 5 -1 9q0 16 13 21q17 5 91 5t90.5 -5t22.5 -30l88 -526q3 -10 12 -10t12 12l90 524q4 25 21.5 30t91.5 5q72 0 89 -5q13 -5 13 -19q0 -5 -2 -11l-327 -1327q-6 -22 -24.5 -26.5t-78.5 -4.5q-62 0 -77.5 7t-10.5 34l78 367q7 39 7 74q0 40 -9 75z" />
<glyph unicode="z" horiz-adv-x="606" d="M41 113q0 116 4 123q105 186 277 487q9 17 4 41t-19 35q-10 4 -43 4h-174q-15 0 -22.5 12t-9 27t-1.5 41q0 100 27 100h442q30 0 36.5 -17t6.5 -79q0 -107 -10 -125q-57 -103 -149.5 -268.5t-137.5 -247.5q-6 -11 -1.5 -32t12.5 -26q10 -6 61 -6h201q30 0 30 -98v-16 v-14.5v-12.5t-1 -12t-2 -10t-3.5 -8.5l-5.5 -5.5t-7.5 -4t-10.5 -1h-467q-24 0 -30.5 26t-6.5 87z" />
<glyph unicode="{" horiz-adv-x="491" d="M20 717q0 50 5 63t24 15q27 4 57.5 37.5t30.5 80.5v404q0 134 89.5 215.5t217.5 81.5q20 0 24.5 -15t4.5 -77q0 -61 -4.5 -75.5t-24.5 -14.5q-54 0 -82 -39.5t-28 -100.5v-389q0 -53 -10.5 -90.5t-22.5 -52t-22.5 -25.5t-10.5 -18q0 -6 10.5 -17t22.5 -25t22.5 -52 t10.5 -93v-389q0 -61 28 -100t82 -39q20 0 24.5 -15t4.5 -77q0 -61 -4.5 -76.5t-24.5 -15.5q-128 0 -217.5 82t-89.5 217v405q0 45 -30 78t-58 41q-19 3 -24 14.5t-5 61.5z" />
<glyph unicode="|" horiz-adv-x="362" d="M72 -117v1661q0 23 18 28t90 5q74 0 92.5 -5t18.5 -28v-1661q0 -18 -16 -21t-95 -3q-77 0 -92.5 3t-15.5 21z" />
<glyph unicode="}" horiz-adv-x="491" d="M18 -90q0 61 5 76.5t24 15.5q56 0 84.5 39t28.5 100v389q0 55 10 93t22.5 52t22.5 25t10 17q0 7 -10 18t-22.5 25.5t-22.5 52t-10 90.5v389q0 61 -28.5 100.5t-84.5 39.5q-19 0 -24 15.5t-5 74.5q0 61 5 76.5t24 15.5q129 0 219 -81.5t90 -215.5v-404q0 -47 29.5 -80.5 t56.5 -37.5q20 -1 23.5 -13t3.5 -65q0 -52 -3.5 -62.5t-23.5 -13.5q-28 -8 -57 -40.5t-29 -78.5v-405q0 -135 -90 -217t-219 -82q-19 0 -24 16t-5 76z" />
<glyph unicode="~" horiz-adv-x="907" d="M125.5 700q-3.5 16 9.5 29q25 34 103.5 88.5t148.5 54.5q29 0 52.5 -10.5t37.5 -25t26.5 -29t26.5 -25t31 -10.5t55.5 34t61.5 60q6 6 12.5 6t15.5 -7.5t21 -25t29 -46.5q32 -51 35 -69t-11 -32q-27 -34 -104.5 -87.5t-145.5 -53.5q-37 0 -65 15.5t-41 33.5t-31 33.5 t-37 15.5q-33 0 -116 -92q-15 -13 -29.5 0t-48.5 72q-33 55 -36.5 71z" />
<glyph unicode="&#xa1;" horiz-adv-x="362" d="M61 -383v973q0 24 18 29.5t91 5.5q71 0 87.5 -5.5t16.5 -29.5v-973q0 -21 -15 -25t-89 -4q-76 0 -92.5 4t-16.5 25zM61 821v168q0 23 17.5 28t91.5 5q72 0 89 -5t17 -28v-168q0 -21 -14.5 -24.5t-91.5 -3.5t-93 3.5t-16 24.5z" />
<glyph unicode="&#xa2;" horiz-adv-x="686" d="M51 287v379q0 99 45 171t121 105q14 6 14 27v100q0 20 16.5 23.5t92.5 3.5q77 0 93 -3.5t16 -23.5v-106q0 -17 12 -23q76 -33 121 -101t45 -155q0 -28 -19.5 -32.5t-115.5 -4.5q-51 0 -61 4t-13 23q-6 51 -26 68.5t-60 17.5q-26 0 -48 -21t-22 -57v-410q0 -34 22 -55.5 t48 -21.5q40 0 60 17t26 67q3 21 12.5 24.5t61.5 3.5h16q83 0 101 -5.5t18 -33.5q0 -85 -45 -152t-121 -100q-12 -9 -12 -24v-109q0 -18 -15 -21t-94 -3q-78 0 -93.5 3t-15.5 21v101q0 22 -14 30q-76 33 -121 104t-45 169z" />
<glyph unicode="&#xa3;" horiz-adv-x="702" d="M-168 715q0 148 73 273.5t198.5 198.5t273.5 73t273.5 -73t198.5 -198.5t73 -273.5t-73 -273.5t-198.5 -198.5t-273.5 -73t-273.5 73t-198.5 198.5t-73 273.5zM-109 715q0 -99 38.5 -189t103.5 -155t155 -103.5t189 -38.5q33 0 49 2q-110 57 -186 154q-111 148 -111 330 q0 181 111 329q76 97 186 154q-16 2 -49 2q-132 0 -244 -65t-177 -176.5t-65 -243.5z" />
<glyph unicode="&#xa4;" horiz-adv-x="811" d="M-168 715q0 148 73 273.5t198.5 198.5t273.5 73t273.5 -73t198.5 -198.5t73 -273.5t-73 -273.5t-198.5 -198.5t-273.5 -73t-273.5 73t-198.5 198.5t-73 273.5zM-109 715q0 -99 38.5 -189t103.5 -155t155 -103.5t189 -38.5q33 0 49 2q-110 57 -186 154q-111 148 -111 330 q0 181 111 329q76 97 186 154q-16 2 -49 2q-132 0 -244 -65t-177 -176.5t-65 -243.5z" />
<glyph unicode="&#xa5;" horiz-adv-x="694" d="M-168 715q0 148 73 273.5t198.5 198.5t273.5 73t273.5 -73t198.5 -198.5t73 -273.5t-73 -273.5t-198.5 -198.5t-273.5 -73t-273.5 73t-198.5 198.5t-73 273.5zM-109 715q0 -99 38.5 -189t103.5 -155t155 -103.5t189 -38.5q33 0 49 2q-110 57 -186 154q-111 148 -111 330 q0 181 111 329q76 97 186 154q-16 2 -49 2q-132 0 -244 -65t-177 -176.5t-65 -243.5z" />
<glyph unicode="&#xa7;" horiz-adv-x="720" d="M-168 715q0 148 73 273.5t198.5 198.5t273.5 73t273.5 -73t198.5 -198.5t73 -273.5t-73 -273.5t-198.5 -198.5t-273.5 -73t-273.5 73t-198.5 198.5t-73 273.5zM-109 715q0 -99 38.5 -189t103.5 -155t155 -103.5t189 -38.5q33 0 49 2q-110 57 -186 154q-111 148 -111 330 q0 181 111 329q76 97 186 154q-16 2 -49 2q-132 0 -244 -65t-177 -176.5t-65 -243.5z" />
<glyph unicode="&#xa8;" horiz-adv-x="698" d="M84 1563v143q0 20 16 24.5t80 4.5q61 0 75.5 -4.5t14.5 -24.5v-143q0 -20 -13 -23.5t-77 -3.5q-68 0 -82 3.5t-14 23.5zM418 1563v143q0 20 15 24.5t77 4.5q61 0 75.5 -4.5t14.5 -24.5v-143q0 -20 -13 -23.5t-77 -3.5q-65 0 -78.5 3.5t-13.5 23.5z" />
<glyph unicode="&#xa9;" horiz-adv-x="1134" d="M70 938q0 135 66.5 249.5t181 181.5t249.5 67q136 0 251 -67t182 -181.5t67 -249.5q0 -136 -67 -250t-182 -180t-251 -66q-135 0 -249.5 66t-181 180t-66.5 250zM180 940q0 -161 114.5 -274t276.5 -113t276 113t114 274t-114.5 276t-275.5 115t-276 -115t-115 -276z M457 778v334q0 54 32 84.5t80 30.5q47 0 82 -34t35 -81v-45q0 -8 -7 -10t-36 -2q-27 0 -35 2t-8 10v51q0 11 -9 20t-22 9q-10 0 -19 -9t-9 -20v-346q0 -11 9 -20t19 -9q13 0 22 9t9 20v51q0 10 7 12.5t34 2.5q30 0 37.5 -2.5t7.5 -12.5v-45q0 -47 -34.5 -79.5t-82.5 -32.5 t-80 30t-32 82z" />
<glyph unicode="&#xaa;" horiz-adv-x="368" d="M-352 715q0 148 73 273.5t198.5 198.5t273.5 73t273.5 -73t198 -198.5t72.5 -273.5t-72.5 -273.5t-198 -198.5t-273.5 -73t-273.5 73t-198.5 198.5t-73 273.5zM-293 715q0 -99 38.5 -189t103.5 -155t155 -103.5t189 -38.5q33 0 49 2q-112 58 -187 154q-110 147 -110 330 q0 182 110 329q75 96 187 154q-16 2 -49 2q-132 0 -244 -65t-177 -176.5t-65 -243.5z" />
<glyph unicode="&#xab;" horiz-adv-x="645" d="M20 514q0 11 15 41l178 289q15 20 31.5 19.5t52.5 -25.5q34 -20 40 -37.5t-7 -34.5q-105 -174 -125 -205q-21 -39 -21 -47t21 -47l125 -203q13 -17 7 -34t-40 -40q-36 -25 -52.5 -25.5t-31.5 19.5q-168 273 -178 289q-15 30 -15 41zM303 514q0 15 16 41l177 289 q15 20 31.5 19.5t52.5 -25.5q34 -20 39.5 -37.5t-9.5 -34.5q-105 -174 -123 -205q-22 -36 -22 -47t22 -47l123 -203q14 -17 9 -34t-39 -40q-36 -25 -52.5 -25.5t-31.5 19.5q-167 273 -177 289q-16 26 -16 41z" />
<glyph unicode="&#xac;" horiz-adv-x="811" d="M-168 715q0 148 73 273.5t198.5 198.5t273.5 73t273.5 -73t198.5 -198.5t73 -273.5t-73 -273.5t-198.5 -198.5t-273.5 -73t-273.5 73t-198.5 198.5t-73 273.5zM-109 715q0 -99 38.5 -189t103.5 -155t155 -103.5t189 -38.5q33 0 49 2q-110 57 -186 154q-111 148 -111 330 q0 181 111 329q76 97 186 154q-16 2 -49 2q-132 0 -244 -65t-177 -176.5t-65 -243.5z" />
<glyph unicode="&#xad;" horiz-adv-x="462" d="M39 522q0 48 4 58t25 10h319q21 0 26 -11.5t5 -56.5q0 -47 -5 -58t-26 -11h-319q-21 0 -25 10t-4 59z" />
<glyph unicode="&#xae;" horiz-adv-x="1134" d="M70 936q0 136 66.5 251t181 182t249.5 67q136 0 251 -67t182 -182t67 -251q0 -205 -146.5 -350.5t-353.5 -145.5q-135 0 -249.5 66.5t-181 180.5t-66.5 249zM180 940q0 -161 114.5 -274t276.5 -113t276 113t114 274t-114.5 275t-275.5 114t-276 -114t-115 -275zM459 680 v524q0 27 24 27h90q55 0 86 -30t31 -87v-67q0 -38 -13.5 -57t-41.5 -25l-2 -2l2 -2q55 -22 55 -99v-182q0 -7 -6.5 -8.5t-36.5 -1.5q-43 0 -43 10v203q0 41 -41 41q-13 0 -15.5 -3t-2.5 -16v-225q0 -7 -7 -8.5t-38 -1.5q-41 0 -41 10zM545 1020q0 -12 2.5 -14t15.5 -2h10 q31 0 31 40v66q0 41 -31 41h-10q-12 0 -15 -3t-3 -15v-113z" />
<glyph unicode="&#xaf;" horiz-adv-x="698" d="M100 1128q0 48 4 58t25 10h449q21 0 25.5 -11t4.5 -57q0 -47 -4.5 -58t-25.5 -11h-449q-21 0 -25 10t-4 59z" />
<glyph unicode="&#xb0;" horiz-adv-x="587" d="M63 1233q0 91 63.5 154t154.5 63t154 -63t63 -154t-63 -154t-154 -63t-154.5 63t-63.5 154zM172 1233q0 -44 32.5 -76.5t76.5 -32.5t76 32.5t32 76.5t-32 76t-76 32t-76.5 -32t-32.5 -76z" />
<glyph unicode="&#xb1;" horiz-adv-x="811" d="M-168 715q0 148 73 273.5t198.5 198.5t273.5 73t273.5 -73t198.5 -198.5t73 -273.5t-73 -273.5t-198.5 -198.5t-273.5 -73t-273.5 73t-198.5 198.5t-73 273.5zM-109 715q0 -99 38.5 -189t103.5 -155t155 -103.5t189 -38.5q33 0 49 2q-110 57 -186 154q-111 148 -111 330 q0 181 111 329q76 97 186 154q-16 2 -49 2q-132 0 -244 -65t-177 -176.5t-65 -243.5z" />
<glyph unicode="&#xb4;" horiz-adv-x="698" d="M144 1597.5q-2 15.5 14 28.5l248 148q14 10 28 -1t35 -47q14 -25 19 -38t2.5 -23.5t-15.5 -17.5l-244 -150q-18 -10 -32 1t-35 48q-18 36 -20 51.5z" />
<glyph unicode="&#xb6;" horiz-adv-x="837" d="M51 846v278q0 74 28.5 135t73.5 98t96.5 57t102.5 20h342q38 0 49 -13q13 -16 13 -51v-1333q0 -26 -13 -31.5t-59 -5.5h-11q-47 0 -56 4.5t-9 28.5v1132q0 39 -4.5 48.5t-25.5 9.5q-18 0 -22.5 -10t-4.5 -48v-1120q0 -32 -12.5 -38.5t-65.5 -6.5h-9q-42 0 -51.5 4.5 t-9.5 28.5v436q0 36 -11 49.5t-34 13.5q-53 0 -106 19.5t-98.5 56.5t-74 99t-28.5 139zM272 885q0 -56 26.5 -96.5t59.5 -40.5q32 0 38.5 6.5t6.5 38.5v389q0 26 -6 31.5t-30 5.5q-40 0 -67.5 -40t-27.5 -98v-196z" />
<glyph unicode="&#xb7;" horiz-adv-x="282" d="M33 698v168q0 21 15.5 25t90.5 4q77 0 93 -4t16 -25v-168q0 -23 -17.5 -27.5t-91.5 -4.5q-73 0 -89.5 4.5t-16.5 27.5z" />
<glyph unicode="&#xb8;" horiz-adv-x="704" d="M-168 715q0 148 73 273.5t198.5 198.5t273.5 73t273.5 -73t198.5 -198.5t73 -273.5t-73 -273.5t-198.5 -198.5t-273.5 -73t-273.5 73t-198.5 198.5t-73 273.5zM-109 715q0 -99 38.5 -189t103.5 -155t155 -103.5t189 -38.5q33 0 49 2q-110 57 -186 154q-111 148 -111 330 q0 181 111 329q76 97 186 154q-16 2 -49 2q-132 0 -244 -65t-177 -176.5t-65 -243.5z" />
<glyph unicode="&#xba;" horiz-adv-x="368" d="M-362 715q0 148 72.5 273.5t198 198.5t273.5 73t273.5 -73t198.5 -198.5t73 -273.5t-73 -273.5t-198.5 -198.5t-273.5 -73t-273.5 73t-198 198.5t-72.5 273.5zM-303 715q0 -132 65 -244t176.5 -177t243.5 -65q33 0 49 2q-110 57 -186 154q-111 148 -111 330 q0 181 111 329q76 97 186 154q-16 2 -49 2q-132 0 -243.5 -65t-176.5 -176.5t-65 -243.5z" />
<glyph unicode="&#xbb;" horiz-adv-x="645" d="M32.5 230q-5.5 17 8.5 34q105 172 123 203q22 36 22 47t-22 47l-123 205q-14 17 -8.5 34.5t39.5 37.5q38 24 55 25.5t27 -19.5q168 -273 176 -289q16 -21 16 -41t-16 -41l-176 -289q-10 -21 -27 -19.5t-55 25.5q-34 23 -39.5 40zM312 230q-6 17 7 34q107 172 125 203 q23 33 23 47t-23 47l-125 205q-13 17 -7 34.5t40 37.5q36 24 54 25.5t30 -19.5q166 -273 176 -289q17 -23 17 -41t-17 -41l-176 -289q-12 -21 -30 -19.5t-54 25.5q-34 23 -40 40z" />
<glyph unicode="&#xbf;" horiz-adv-x="675" d="M57 6q0 65 20 123t42.5 90.5t64.5 83.5q18 21 31 40t21 43t13 37.5t7 43.5t2.5 41t0 50.5t-0.5 51.5q0 21 16.5 25t87.5 4q74 0 91.5 -5.5t17.5 -29.5v-46q0 -124 -5.5 -167.5t-31.5 -91.5q-9 -15 -64.5 -86t-72.5 -113q-25 -66 -25 -227q0 -32 22.5 -55t53.5 -23 q32 0 56 23t24 55v94q0 23 17.5 28t91.5 5q73 0 90.5 -5t17.5 -28v-78q0 -136 -84.5 -217.5t-212.5 -81.5q-129 0 -210 75.5t-81 223.5v117zM258 836v168q0 23 16.5 27.5t87.5 4.5q75 0 93 -4.5t18 -27.5v-168q0 -21 -16.5 -25t-94.5 -4q-74 0 -89 4t-15 25z" />
<glyph unicode="&#xc0;" horiz-adv-x="681" d="M31 27q37 289 104.5 742t91.5 630q3 23 22.5 30t86.5 7q65 0 84 -7t22 -30q15 -106 87 -588t112 -784q1 -20 -13 -23.5t-87 -3.5q-74 0 -90 3.5t-19 23.5q-26 221 -29 272q-3 34 -8.5 41.5t-32.5 7.5h-53q-28 0 -34 -7.5t-9 -41.5q-11 -124 -28 -272q-3 -20 -19.5 -23.5 t-89.5 -3.5q-74 0 -88 3.5t-10 23.5zM156.5 1675q2.5 16 23.5 51q20 36 34 47t32 1l248 -148q18 -13 15 -28.5t-24 -51.5q-18 -37 -31.5 -48t-31.5 -1l-250 150q-18 12 -15.5 28zM287 535q-2 -25 3.5 -32t28.5 -7h33q23 0 29 7t4 32q-5 70 -20.5 215t-18.5 206q0 13 -10 13 t-10 -13q-3 -61 -18.5 -206t-20.5 -215z" />
<glyph unicode="&#xc1;" horiz-adv-x="681" d="M31 27q37 289 104.5 742t91.5 630q3 23 22.5 30t86.5 7q65 0 84 -7t22 -30q15 -106 87 -588t112 -784q1 -20 -13 -23.5t-87 -3.5q-74 0 -90 3.5t-19 23.5q-26 221 -29 272q-3 34 -8.5 41.5t-32.5 7.5h-53q-28 0 -34 -7.5t-9 -41.5q-11 -124 -28 -272q-3 -20 -19.5 -23.5 t-89.5 -3.5q-74 0 -88 3.5t-10 23.5zM160 1597.5q-2 15.5 14 28.5l248 148q14 10 28 -1t35 -47q14 -26 19 -38.5t3 -23t-15 -17.5l-244 -150q-18 -10 -32.5 1t-35.5 48q-18 36 -20 51.5zM287 535q-2 -25 3.5 -32t28.5 -7h33q23 0 29 7t4 32q-5 70 -20.5 215t-18.5 206 q0 13 -10 13t-10 -13q-3 -61 -18.5 -206t-20.5 -215z" />
<glyph unicode="&#xc2;" horiz-adv-x="681" d="M31 27q37 289 104.5 742t91.5 630q3 23 22.5 30t86.5 7q65 0 84 -7t22 -30q15 -106 87 -588t112 -784q1 -20 -13 -23.5t-87 -3.5q-74 0 -90 3.5t-19 23.5q-26 221 -29 272q-3 34 -8.5 41.5t-32.5 7.5h-53q-28 0 -34 -7.5t-9 -41.5q-11 -124 -28 -272q-3 -20 -19.5 -23.5 t-89.5 -3.5q-74 0 -88 3.5t-10 23.5zM96 1602.5q-2 16.5 13 29.5l196 150q16 12 29 12q10 0 26 -12l199 -150q11 -8 13.5 -18.5t-2 -24t-17.5 -39.5q-19 -40 -31.5 -51.5t-27.5 0.5l-125 109q-20 20 -35 20q-12 0 -37 -20l-123 -109q-15 -12 -27 0t-30 51q-19 36 -21 52.5z M287 535q-2 -25 3.5 -32t28.5 -7h33q23 0 29 7t4 32q-5 70 -20.5 215t-18.5 206q0 13 -10 13t-10 -13q-3 -61 -18.5 -206t-20.5 -215z" />
<glyph unicode="&#xc3;" horiz-adv-x="681" d="M31 27q37 289 104.5 742t91.5 630q3 23 22.5 30t86.5 7q65 0 84 -7t22 -30q15 -106 87 -588t112 -784q1 -20 -13 -23.5t-87 -3.5q-74 0 -90 3.5t-19 23.5q-26 221 -29 272q-3 34 -8.5 41.5t-32.5 7.5h-53q-28 0 -34 -7.5t-9 -41.5q-11 -124 -28 -272q-3 -20 -19.5 -23.5 t-89.5 -3.5q-74 0 -88 3.5t-10 23.5zM113 1593.5q-2 12.5 8 20.5q13 21 68 58.5t104 37.5q24 0 42.5 -11t28 -24t22 -24t26.5 -11q16 0 82 66q10 15 38 -27q6 -10 13 -22q23 -34 25 -48t-9 -22q-18 -23 -71 -60.5t-99 -37.5q-25 0 -44 11t-28.5 24t-22 24t-26.5 11 q-16 0 -80 -64q-5 -5 -9 -5.5t-10 4.5t-14 16.5t-20 31.5q-22 39 -24 51.5zM287 535q-2 -25 3.5 -32t28.5 -7h33q23 0 29 7t4 32q-5 70 -20.5 215t-18.5 206q0 13 -10 13t-10 -13q-3 -61 -18.5 -206t-20.5 -215z" />
<glyph unicode="&#xc4;" horiz-adv-x="681" d="M31 27q37 289 104.5 742t91.5 630q3 23 22.5 30t86.5 7q65 0 84 -7t22 -30q15 -106 87 -588t112 -784q1 -20 -13 -23.5t-87 -3.5q-74 0 -90 3.5t-19 23.5q-26 221 -29 272q-3 34 -8.5 41.5t-32.5 7.5h-53q-28 0 -34 -7.5t-9 -41.5q-11 -124 -28 -272q-3 -20 -19.5 -23.5 t-89.5 -3.5q-74 0 -88 3.5t-10 23.5zM76 1563v143q0 20 16 24.5t80 4.5q61 0 75.5 -4.5t14.5 -24.5v-143q0 -20 -13 -23.5t-77 -3.5q-68 0 -82 3.5t-14 23.5zM287 535q-2 -25 3.5 -32t28.5 -7h33q23 0 29 7t4 32q-5 70 -20.5 215t-18.5 206q0 13 -10 13t-10 -13 q-3 -61 -18.5 -206t-20.5 -215zM410 1563v143q0 20 15 24.5t77 4.5q61 0 75.5 -4.5t14.5 -24.5v-143q0 -20 -13 -23.5t-77 -3.5q-65 0 -78.5 3.5t-13.5 23.5z" />
<glyph unicode="&#xc5;" horiz-adv-x="681" d="M31 27q37 289 104.5 742t91.5 630q3 23 22.5 30t86.5 7q65 0 84 -7t22 -30q15 -106 87 -588t112 -784q1 -20 -13 -23.5t-87 -3.5q-74 0 -90 3.5t-19 23.5q-26 221 -29 272q-3 34 -8.5 41.5t-32.5 7.5h-53q-28 0 -34 -7.5t-9 -41.5q-11 -124 -28 -272q-3 -20 -19.5 -23.5 t-89.5 -3.5q-74 0 -88 3.5t-10 23.5zM195 1632q0 60 42.5 103t102.5 43t102.5 -43t42.5 -103t-42.5 -102.5t-102.5 -42.5t-102.5 42.5t-42.5 102.5zM266 1632q0 -29 22.5 -51t51.5 -22t50.5 22t21.5 51t-21.5 50.5t-50.5 21.5t-51.5 -21.5t-22.5 -50.5zM287 535 q-2 -25 3.5 -32t28.5 -7h33q23 0 29 7t4 32q-5 70 -20.5 215t-18.5 206q0 13 -10 13t-10 -13q-3 -61 -18.5 -206t-20.5 -215z" />
<glyph unicode="&#xc6;" horiz-adv-x="987" d="M31 31q50 293 138.5 751t117.5 617q3 22 22.5 29.5t83.5 7.5h522q20 0 24.5 -17.5t4.5 -85.5q0 -69 -4.5 -85.5t-24.5 -16.5h-215q-34 0 -41.5 -6t-7.5 -35v-297q0 -29 7.5 -36t41.5 -7h107q21 0 25 -15t4 -87q0 -71 -4 -87t-25 -16h-107q-34 0 -41.5 -6.5t-7.5 -36.5 v-354q0 -29 7.5 -36t41.5 -7h215q20 0 24.5 -16.5t4.5 -84.5q0 -69 -4.5 -86.5t-24.5 -17.5h-417q-30 0 -41 8q-14 6 -18.5 18t-4.5 37v263q0 12 -7 16t-34 4h-51q-29 0 -34.5 -6t-10.5 -39l-33 -270q-4 -22 -26.5 -26.5t-102.5 -4.5q-75 0 -91.5 4.5t-12.5 26.5zM330 537 q-3 -26 2 -32.5t30 -6.5h35q22 0 29 4t8 20v664q0 14 -10 14q-7 0 -10 -12v-2q-6 -53 -40.5 -311t-43.5 -338z" />
<glyph unicode="&#xc7;" horiz-adv-x="694" d="M68 289v860q0 136 85 217.5t212 81.5q123 0 210 -88t87 -211v-111q0 -24 -17.5 -29t-91.5 -5q-73 0 -91 5t-18 29v127q0 33 -23 55.5t-56 22.5q-32 0 -55 -23t-23 -55v-893q0 -33 22.5 -54t55.5 -21q34 0 56.5 21t22.5 54v134q0 23 17 27.5t90 4.5q75 0 93 -4.5t18 -27.5 v-117q0 -96 -55 -173t-142 -110q-33 -13 -33 -49q0 -86 -52.5 -144.5t-127.5 -58.5q-15 0 -18 9.5t-3 50.5q0 30 3.5 41t17.5 14q65 16 65 94v10v7.5t-0.5 4.5t-2 4t-4 2.5t-7.5 2.5q-104 21 -169.5 98.5t-65.5 196.5z" />
<glyph unicode="&#xc8;" horiz-adv-x="634" d="M80 72q2 -37 15.5 -54.5t47.5 -17.5h422q19 0 24 18t5 86q0 67 -5 85t-24 18h-217q-33 0 -40 6t-7 35v356q0 29 7.5 36t39.5 7h107q20 0 24 16t4 85q0 72 -4 88t-24 16h-107q-33 0 -40 6.5t-7 36.5v291q0 31 7.5 38t39.5 7h217q19 0 24 17t5 85q0 67 -5 85t-24 18h-422 q-34 0 -47.5 -16.5t-15.5 -53.5v-1294zM162.5 1675q2.5 16 23.5 51q20 36 34 47t32 1l248 -148q18 -12 15.5 -28.5t-23.5 -51.5q-18 -36 -32 -47.5t-32 -1.5l-250 150q-18 12 -15.5 28z" />
<glyph unicode="&#xc9;" horiz-adv-x="634" d="M80 72q2 -37 15.5 -54.5t47.5 -17.5h422q19 0 24 18t5 86q0 67 -5 85t-24 18h-217q-33 0 -40 6t-7 35v356q0 29 7.5 36t39.5 7h107q20 0 24 16t4 85q0 72 -4 88t-24 16h-107q-33 0 -40 6.5t-7 36.5v291q0 31 7.5 38t39.5 7h217q19 0 24 17t5 85q0 67 -5 85t-24 18h-422 q-34 0 -47.5 -16.5t-15.5 -53.5v-1294zM160 1599.5q-2 15.5 14 28.5l248 148q14 10 28 -1t35 -46q14 -26 19 -38.5t3 -23.5t-15 -18l-244 -150q-18 -10 -32.5 1t-35.5 48q-18 36 -20 51.5z" />
<glyph unicode="&#xca;" horiz-adv-x="634" d="M80 72q2 -37 15.5 -54.5t47.5 -17.5h422q19 0 24 18t5 86q0 67 -5 85t-24 18h-217q-33 0 -40 6t-7 35v356q0 29 7.5 36t39.5 7h107q20 0 24 16t4 85q0 72 -4 88t-24 16h-107q-33 0 -40 6.5t-7 36.5v291q0 31 7.5 38t39.5 7h217q19 0 24 17t5 85q0 67 -5 85t-24 18h-422 q-34 0 -47.5 -16.5t-15.5 -53.5v-1294zM98 1602.5q-2 16.5 13 29.5l196 150q16 12 29 12q10 0 26 -12l199 -150q11 -8 13.5 -18.5t-2 -24t-17.5 -39.5q-19 -40 -31.5 -51.5t-27.5 0.5l-125 109q-20 20 -35 20q-12 0 -37 -20l-123 -109q-15 -12 -27 0t-30 51q-19 36 -21 52.5 z" />
<glyph unicode="&#xcb;" horiz-adv-x="634" d="M76 1563v143q0 20 16 24.5t80 4.5q61 0 75.5 -4.5t14.5 -24.5v-143q0 -20 -13 -23.5t-77 -3.5q-68 0 -82 3.5t-14 23.5zM80 72q2 -37 15.5 -54.5t47.5 -17.5h422q19 0 24 18t5 86q0 67 -5 85t-24 18h-217q-33 0 -40 6t-7 35v356q0 29 7.5 36t39.5 7h107q20 0 24 16t4 85 q0 72 -4 88t-24 16h-107q-33 0 -40 6.5t-7 36.5v291q0 31 7.5 38t39.5 7h217q19 0 24 17t5 85q0 67 -5 85t-24 18h-422q-34 0 -47.5 -16.5t-15.5 -53.5v-1294zM410 1563v143q0 20 15 24.5t77 4.5q61 0 75.5 -4.5t14.5 -24.5v-143q0 -20 -13 -23.5t-77 -3.5q-65 0 -78.5 3.5 t-13.5 23.5z" />
<glyph unicode="&#xcc;" horiz-adv-x="382" d="M17.5 1675q2.5 16 23.5 51q20 36 33.5 47t31.5 1l248 -148q18 -12 15.5 -28.5t-23.5 -51.5q-18 -37 -31.5 -48t-31.5 -1l-250 150q-18 12 -15.5 28zM82 27q0 -20 17 -23.5t96 -3.5q75 0 90.5 3.5t15.5 23.5v1378q0 21 -17 26t-89 5q-75 0 -94 -5t-19 -26v-1378z" />
<glyph unicode="&#xcd;" horiz-adv-x="382" d="M17 1597.5q-2 15.5 14 28.5l248 148q14 10 28 -1t35 -47q14 -25 19 -38t2.5 -23.5t-15.5 -17.5l-244 -150q-18 -10 -32 1t-35 48q-18 36 -20 51.5zM82 27q0 -20 17 -23.5t96 -3.5q75 0 90.5 3.5t15.5 23.5v1378q0 21 -17 26t-89 5q-75 0 -94 -5t-19 -26v-1378z" />
<glyph unicode="&#xce;" horiz-adv-x="382" d="M-50 1602.5q-2 16.5 13 29.5l197 150q16 12 28 12q11 0 27 -12l199 -150q11 -8 13.5 -18.5t-2 -24t-17.5 -39.5q-19 -39 -32 -51t-28 0l-125 109q-20 20 -35 20q-11 0 -36 -20l-123 -109q-15 -12 -27.5 0t-30.5 51q-19 36 -21 52.5zM82 27q0 -20 17 -23.5t96 -3.5 q75 0 90.5 3.5t15.5 23.5v1378q0 21 -17 26t-89 5q-75 0 -94 -5t-19 -26v-1378z" />
<glyph unicode="&#xcf;" horiz-adv-x="382" d="M-66 1563v143q0 20 16.5 24.5t80.5 4.5q61 0 75.5 -4.5t14.5 -24.5v-143q0 -20 -12.5 -23.5t-77.5 -3.5q-68 0 -82.5 3.5t-14.5 23.5zM82 27q0 -20 17 -23.5t96 -3.5q75 0 90.5 3.5t15.5 23.5v1378q0 21 -17 26t-89 5q-75 0 -94 -5t-19 -26v-1378zM268 1563v143 q0 20 15 24.5t77 4.5q61 0 76 -4.5t15 -24.5v-143q0 -20 -13.5 -23.5t-77.5 -3.5q-65 0 -78.5 3.5t-13.5 23.5z" />
<glyph unicode="&#xd0;" horiz-adv-x="765" d="M-168 715q0 148 73 273.5t198.5 198.5t273.5 73t273.5 -73t198.5 -198.5t73 -273.5t-73 -273.5t-198.5 -198.5t-273.5 -73t-273.5 73t-198.5 198.5t-73 273.5zM-109 715q0 -99 38.5 -189t103.5 -155t155 -103.5t189 -38.5q33 0 49 2q-110 57 -186 154q-111 148 -111 330 q0 181 111 329q76 97 186 154q-16 2 -49 2q-132 0 -244 -65t-177 -176.5t-65 -243.5z" />
<glyph unicode="&#xd1;" horiz-adv-x="792" d="M82 27v1364q0 27 17 36t81 9q46 0 70 -8.5t29.5 -18t13.5 -33.5l178 -653q6 -12 14 -12q13 0 13 12v684q0 21 15.5 25t92.5 4q78 0 94.5 -4t16.5 -25v-1362v-9v-8.5t-0.5 -6.5t-2.5 -6t-4.5 -4.5t-7 -4t-10.5 -2.5t-14 -2.5t-18.5 -1t-24.5 -0.5q-46 0 -70.5 8t-31.5 18 t-13 31l-194 707q-6 14 -15 14q-12 0 -12 -12v-739q0 -20 -15 -23.5t-89 -3.5q-80 0 -96.5 3.5t-16.5 23.5zM156 1593.5q-2 12.5 8 20.5q13 21 68 58.5t104 37.5q24 0 42.5 -11t28 -24t22 -24t26.5 -11q16 0 82 66q10 15 38 -27q6 -10 13 -22q23 -34 25 -48t-9 -22 q-18 -23 -71 -60.5t-99 -37.5q-25 0 -44 11t-28.5 24t-22 24t-26.5 11q-16 0 -80 -64q-5 -5 -9 -5.5t-10 4.5t-14 16.5t-20 31.5q-22 39 -24 51.5z" />
<glyph unicode="&#xd2;" d="M61 287v862q0 137 85 218t214 81q127 0 212 -81t85 -218v-862q0 -136 -85 -216.5t-212 -80.5q-128 0 -213.5 80.5t-85.5 216.5zM187.5 1675q2.5 16 23.5 51q20 36 33.5 47t31.5 1l248 -148q18 -12 15.5 -28.5t-23.5 -51.5q-18 -37 -31.5 -48t-31.5 -1l-250 150 q-18 12 -15.5 28zM283 270q0 -31 22.5 -53t54.5 -22t54 22t22 53v895q0 31 -22 53.5t-54 22.5t-54.5 -22.5t-22.5 -53.5v-895z" />
<glyph unicode="&#xd3;" d="M61 287v862q0 137 85 218t214 81q127 0 212 -81t85 -218v-862q0 -136 -85 -216.5t-212 -80.5q-128 0 -213.5 80.5t-85.5 216.5zM185 1597.5q-2 15.5 14 28.5l247 148q14 10 28.5 -1.5t35.5 -46.5q14 -25 19 -38t2.5 -23.5t-15.5 -17.5l-244 -150q-18 -10 -32 1t-35 48 q-18 36 -20 51.5zM283 270q0 -31 22.5 -53t54.5 -22t54 22t22 53v895q0 31 -22 53.5t-54 22.5t-54.5 -22.5t-22.5 -53.5v-895z" />
<glyph unicode="&#xd4;" d="M61 287v862q0 137 85 218t214 81q127 0 212 -81t85 -218v-862q0 -136 -85 -216.5t-212 -80.5q-128 0 -213.5 80.5t-85.5 216.5zM120 1602.5q-2 16.5 13 29.5l197 150q16 12 28 12q11 0 27 -12l199 -150q11 -8 13.5 -18.5t-2 -24t-17.5 -39.5q-19 -39 -32 -51t-28 0 l-125 109q-20 20 -35 20q-11 0 -36 -20l-123 -109q-15 -12 -27.5 0t-30.5 51q-19 36 -21 52.5zM283 270q0 -31 22.5 -53t54.5 -22t54 22t22 53v895q0 31 -22 53.5t-54 22.5t-54.5 -22.5t-22.5 -53.5v-895z" />
<glyph unicode="&#xd5;" d="M61 287v862q0 137 85 218t214 81q127 0 212 -81t85 -218v-862q0 -136 -85 -216.5t-212 -80.5q-128 0 -213.5 80.5t-85.5 216.5zM139.5 1593q-2.5 12 7.5 21q13 21 68 58.5t104 37.5q24 0 42.5 -11t28 -24t22 -24t26.5 -11q16 0 82 66q10 15 38 -27q6 -10 13 -22 q23 -34 25.5 -48t-8.5 -22q-18 -23 -71 -60.5t-99 -37.5q-25 0 -44 11t-28.5 24t-22 24t-26.5 11q-16 0 -80 -64q-5 -5 -9 -5.5t-10 4.5t-14 16.5t-20 31.5q-22 39 -24.5 51zM283 270q0 -31 22.5 -53t54.5 -22t54 22t22 53v895q0 31 -22 53.5t-54 22.5t-54.5 -22.5 t-22.5 -53.5v-895z" />
<glyph unicode="&#xd6;" d="M61 287v862q0 137 85 218t214 81q127 0 212 -81t85 -218v-862q0 -136 -85 -216.5t-212 -80.5q-128 0 -213.5 80.5t-85.5 216.5zM102 1563v143q0 20 16.5 24.5t80.5 4.5q61 0 75.5 -4.5t14.5 -24.5v-143q0 -20 -12.5 -23.5t-77.5 -3.5q-68 0 -82.5 3.5t-14.5 23.5z M283 270q0 -31 22.5 -53t54.5 -22t54 22t22 53v895q0 31 -22 53.5t-54 22.5t-54.5 -22.5t-22.5 -53.5v-895zM436 1563v143q0 20 15 24.5t77 4.5q61 0 75.5 -4.5t14.5 -24.5v-143q0 -20 -13 -23.5t-77 -3.5q-65 0 -78.5 3.5t-13.5 23.5z" />
<glyph unicode="&#xd8;" d="M-168 715q0 148 73 273.5t198.5 198.5t273.5 73t273.5 -73t198.5 -198.5t73 -273.5t-73 -273.5t-198.5 -198.5t-273.5 -73t-273.5 73t-198.5 198.5t-73 273.5zM-109 715q0 -99 38.5 -189t103.5 -155t155 -103.5t189 -38.5q33 0 49 2q-110 57 -186 154q-111 148 -111 330 q0 181 111 329q76 97 186 154q-16 2 -49 2q-132 0 -244 -65t-177 -176.5t-65 -243.5z" />
<glyph unicode="&#xd9;" d="M68 287v1118q0 21 18 26t92 5q72 0 90.5 -5t18.5 -26v-1135q0 -31 23 -53t55 -22t55.5 22t23.5 53v1135q0 21 18 26t91 5t92 -5t19 -26v-1118q0 -136 -86 -216.5t-213 -80.5t-212 80.5t-85 216.5zM191.5 1675q2.5 16 23.5 51q20 36 34 47t32 1l247 -148 q18 -12 15.5 -28.5t-23.5 -51.5q-18 -37 -31.5 -48t-31.5 -1l-250 150q-18 12 -15.5 28z" />
<glyph unicode="&#xda;" d="M68 287v1118q0 21 18 26t92 5q72 0 90.5 -5t18.5 -26v-1135q0 -31 23 -53t55 -22t55.5 22t23.5 53v1135q0 21 18 26t91 5t92 -5t19 -26v-1118q0 -136 -86 -216.5t-213 -80.5t-212 80.5t-85 216.5zM189 1597.5q-2 15.5 14 28.5l248 148q14 10 28 -1t35 -47q14 -25 19 -38 t2.5 -23.5t-15.5 -17.5l-244 -150q-18 -10 -32 1t-35 48q-18 36 -20 51.5z" />
<glyph unicode="&#xdb;" d="M68 287v1118q0 21 18 26t92 5q72 0 90.5 -5t18.5 -26v-1135q0 -31 23 -53t55 -22t55.5 22t23.5 53v1135q0 21 18 26t91 5t92 -5t19 -26v-1118q0 -136 -86 -216.5t-213 -80.5t-212 80.5t-85 216.5zM124 1602.5q-2 16.5 13 29.5l197 150q16 12 28 12q11 0 27 -12l199 -150 q11 -8 13.5 -18.5t-2 -24t-17.5 -39.5q-19 -39 -32 -51t-28 0l-125 109q-20 20 -35 20q-11 0 -36 -20l-123 -109q-15 -12 -27.5 0t-30.5 51q-19 36 -21 52.5z" />
<glyph unicode="&#xdc;" d="M68 287v1118q0 21 18 26t92 5q72 0 90.5 -5t18.5 -26v-1135q0 -31 23 -53t55 -22t55.5 22t23.5 53v1135q0 21 18 26t91 5t92 -5t19 -26v-1118q0 -136 -86 -216.5t-213 -80.5t-212 80.5t-85 216.5zM111 1563v143q0 20 16 24.5t80 4.5q61 0 75.5 -4.5t14.5 -24.5v-143 q0 -20 -12.5 -23.5t-77.5 -3.5q-68 0 -82 3.5t-14 23.5zM444 1563v143q0 20 15 24.5t78 4.5q61 0 75.5 -4.5t14.5 -24.5v-143q0 -20 -13.5 -23.5t-76.5 -3.5q-65 0 -79 3.5t-14 23.5z" />
<glyph unicode="&#xdd;" horiz-adv-x="651" d="M31 1393q-5 26 11.5 34.5t86.5 8.5q54 0 79 -5t30.5 -12t9.5 -26l65 -506q0 -8 11 -8q9 0 12 8l65 506q2 19 7 26t30.5 12t81.5 5q69 0 86 -8.5t12 -34.5l-163 -717q-21 -105 -21 -172v-477q0 -20 -16 -23.5t-94 -3.5q-77 0 -93 3.5t-16 23.5v477q0 72 -20 172z M148 1597.5q-2 15.5 14 28.5l248 148q14 10 28 -1t35 -47q14 -25 19 -38t2.5 -23.5t-15.5 -17.5l-243 -150q-18 -10 -32.5 1t-35.5 48q-18 36 -20 51.5z" />
<glyph unicode="&#xde;" horiz-adv-x="729" d="M-168 715q0 148 73 273.5t198.5 198.5t273.5 73t273.5 -73t198.5 -198.5t73 -273.5t-73 -273.5t-198.5 -198.5t-273.5 -73t-273.5 73t-198.5 198.5t-73 273.5zM-109 715q0 -99 38.5 -189t103.5 -155t155 -103.5t189 -38.5q33 0 49 2q-110 57 -186 154q-111 148 -111 330 q0 181 111 329q76 97 186 154q-16 2 -49 2q-132 0 -244 -65t-177 -176.5t-65 -243.5z" />
<glyph unicode="&#xdf;" d="M68 29v1132q0 120 86 196.5t211 76.5q128 0 213.5 -76t85.5 -199v-231q0 -50 -39 -107q-10 -13 -22.5 -23t-25 -18t-16.5 -12q1 -1 25.5 -16.5t38.5 -32.5q39 -68 39 -125v-291q0 -139 -80 -221t-213 -82q-13 0 -17 20t-4 89q0 46 2.5 69.5t6.5 30t12 6.5q82 0 82 129 v223q0 47 -23.5 83t-64.5 36q-12 0 -15.5 13t-3.5 63q0 53 3 66.5t16 13.5q42 0 65 33t23 81v160q0 49 -22 79t-62 30t-61 -31t-21 -80v-1085q0 -28 -103 -31q-116 -3 -116 31z" />
<glyph unicode="&#xe0;" horiz-adv-x="706" d="M51 268v451q0 131 63 203.5t162 72.5q41 0 81.5 -18t68.5 -49q6 -8 14 -4l4 8l2 22q3 20 20 24.5t81 4.5q75 0 88.5 -4t13.5 -27v-921q0 -23 -13.5 -27t-88.5 -4q-64 0 -81 4.5t-20 24.5l-2 24l-4 8q-8 4 -14 -2q-27 -33 -67.5 -52t-82.5 -19q-99 0 -162 74t-63 206z M166.5 1242.5q2.5 16.5 23.5 51.5q20 35 34 46t32 1l248 -147q18 -12 15.5 -28.5t-23.5 -51.5q-18 -36 -32 -47.5t-32 -1.5l-250 149q-18 12 -15.5 28.5zM270 281q0 -33 23.5 -56.5t56.5 -23.5q32 0 56 24t24 56v424q0 33 -23.5 55t-56.5 24q-34 -2 -57 -24t-23 -55v-424z " />
<glyph unicode="&#xe1;" horiz-adv-x="706" d="M51 268v451q0 131 63 203.5t162 72.5q41 0 81.5 -18t68.5 -49q6 -8 14 -4l4 8l2 22q3 20 20 24.5t81 4.5q75 0 88.5 -4t13.5 -27v-921q0 -23 -13.5 -27t-88.5 -4q-64 0 -81 4.5t-20 24.5l-2 24l-4 8q-8 4 -14 -2q-27 -33 -67.5 -52t-82.5 -19q-99 0 -162 74t-63 206z M172 1165.5q-2 15.5 14 28.5l248 147q15 10 29 -1t35 -46q14 -25 19 -38.5t2.5 -24t-15.5 -17.5l-244 -149q-18 -10 -32 1t-35 48q-19 36 -21 51.5zM270 281q0 -33 23.5 -56.5t56.5 -23.5q32 0 56 24t24 56v424q0 33 -23.5 55t-56.5 24q-34 -2 -57 -24t-23 -55v-424z" />
<glyph unicode="&#xe2;" horiz-adv-x="706" d="M51 268v451q0 131 63 203.5t162 72.5q41 0 81.5 -18t68.5 -49q6 -8 14 -4l4 8l2 22q3 20 20 24.5t81 4.5q75 0 88.5 -4t13.5 -27v-921q0 -23 -13.5 -27t-88.5 -4q-64 0 -81 4.5t-20 24.5l-2 24l-4 8q-8 4 -14 -2q-27 -33 -67.5 -52t-82.5 -19q-99 0 -162 74t-63 206z M120 1172.5q-2 16.5 13 29.5l197 150q16 12 28 12q11 0 27 -12l199 -150q11 -8 13.5 -18.5t-2 -24t-17.5 -39.5q-19 -39 -32 -51t-28 0l-125 109q-20 20 -35 20q-11 0 -36 -20l-123 -109q-15 -12 -27.5 0t-30.5 51q-19 36 -21 52.5zM270 281q0 -33 23.5 -56.5t56.5 -23.5 q32 0 56 24t24 56v424q0 33 -23.5 55t-56.5 24q-34 -2 -57 -24t-23 -55v-424z" />
<glyph unicode="&#xe3;" horiz-adv-x="706" d="M51 268v451q0 131 63 203.5t162 72.5q41 0 81.5 -18t68.5 -49q6 -8 14 -4l4 8l2 22q3 20 20 24.5t81 4.5q75 0 88.5 -4t13.5 -27v-921q0 -23 -13.5 -27t-88.5 -4q-64 0 -81 4.5t-20 24.5l-2 24l-4 8q-8 4 -14 -2q-27 -33 -67.5 -52t-82.5 -19q-99 0 -162 74t-63 206z M123 1204.5q-2 12.5 8 20.5q13 21 68 58.5t104 37.5q24 0 42.5 -11t28 -24t22 -24t26.5 -11q16 0 82 66q10 15 38 -27q6 -10 13 -22q23 -34 25 -48t-9 -22q-18 -23 -71 -60.5t-99 -37.5q-25 0 -44 11t-28 23.5t-21.5 23.5t-26.5 11q-17 0 -80 -63q-6 -6 -12.5 -5t-16.5 13.5 t-25 38.5q-22 39 -24 51.5zM270 281q0 -33 23.5 -56.5t56.5 -23.5q32 0 56 24t24 56v424q0 33 -23.5 55t-56.5 24q-34 -2 -57 -24t-23 -55v-424z" />
<glyph unicode="&#xe4;" horiz-adv-x="706" d="M51 268v451q0 131 63 203.5t162 72.5q41 0 81.5 -18t68.5 -49q6 -8 14 -4l4 8l2 22q3 20 20 24.5t81 4.5q75 0 88.5 -4t13.5 -27v-921q0 -23 -13.5 -27t-88.5 -4q-64 0 -81 4.5t-20 24.5l-2 24l-4 8q-8 4 -14 -2q-27 -33 -67.5 -52t-82.5 -19q-99 0 -162 74t-63 206z M115 1141v143q0 20 16 24.5t80 4.5q61 0 75.5 -4.5t14.5 -24.5v-143q0 -20 -12.5 -23.5t-77.5 -3.5q-68 0 -82 3.5t-14 23.5zM270 281q0 -33 23.5 -56.5t56.5 -23.5q32 0 56 24t24 56v424q0 33 -23.5 55t-56.5 24q-34 -2 -57 -24t-23 -55v-424zM449 1141v143q0 20 15 24.5 t77 4.5q61 0 75.5 -4.5t14.5 -24.5v-143q0 -20 -13.5 -23.5t-76.5 -3.5q-65 0 -78.5 3.5t-13.5 23.5z" />
<glyph unicode="&#xe5;" horiz-adv-x="706" d="M51 268v451q0 131 63 203.5t162 72.5q41 0 81.5 -18t68.5 -49q6 -8 14 -4l4 8l2 22q3 20 20 24.5t81 4.5q75 0 88.5 -4t13.5 -27v-921q0 -23 -13.5 -27t-88.5 -4q-64 0 -81 4.5t-20 24.5l-2 24l-4 8q-8 4 -14 -2q-27 -33 -67.5 -52t-82.5 -19q-99 0 -162 74t-63 206z M201 1223q0 60 42.5 102.5t102.5 42.5t103 -42.5t43 -102.5t-43 -103t-103 -43t-102.5 43t-42.5 103zM270 281q0 -33 23.5 -56.5t56.5 -23.5q32 0 56 24t24 56v424q0 33 -23.5 55t-56.5 24q-34 -2 -57 -24t-23 -55v-424zM272 1223q0 -29 22.5 -51.5t51.5 -22.5t50.5 22.5 t21.5 51.5t-21.5 50t-50.5 21q-30 0 -52 -21t-22 -50z" />
<glyph unicode="&#xe6;" horiz-adv-x="1077" d="M51 276v52q0 122 66 204t162 82q68 0 116 -34h2l4 2v120q0 37 -20.5 58.5t-44.5 21.5q-40 0 -59.5 -17.5t-26.5 -70.5q-2 -20 -11 -24t-57 -4q-93 0 -112 5t-19 36q0 122 80.5 205t196.5 83q48 0 86 -10.5t56 -23t32.5 -23t21.5 -10.5q8 0 23 10.5t33.5 23t57 23 t87.5 10.5q125 0 212 -83t87 -205v-215q0 -29 -7.5 -36t-41.5 -7h-279q-33 0 -40 -6.5t-7 -36.5v-125q0 -36 21.5 -58t48.5 -22q41 0 62 18t28 68q2 21 11.5 24.5t62.5 3.5h17q86 0 105 -5.5t19 -33.5q0 -121 -87 -204.5t-212 -83.5q-48 0 -85.5 10t-56 22.5t-33.5 22.5 t-22 10t-22 -10t-33.5 -22.5t-57 -22.5t-87.5 -10q-116 0 -196.5 83.5t-80.5 204.5zM238 281q0 -33 24 -56.5t57 -23.5q32 0 57 24t25 56v45q0 32 -25 57t-57 25q-33 0 -57 -24.5t-24 -57.5v-45zM649 639q0 -28 18.5 -35.5t57.5 -7.5q21 0 33 1t25.5 5t19.5 13t6 24v63 q0 34 -23.5 57t-58.5 23q-34 0 -56 -23t-22 -57v-63z" />
<glyph unicode="&#xe7;" horiz-adv-x="675" d="M51 295v389q0 142 85 226.5t212 84.5q124 0 210.5 -83t86.5 -205q0 -31 -20.5 -36t-120.5 -5q-52 0 -62 4t-12 24q-7 52 -27 70t-59 18q-29 0 -51.5 -21.5t-22.5 -58.5v-421q0 -36 23 -58t51 -22q38 0 58.5 18t27.5 68q2 21 11.5 24.5t62.5 3.5h17q86 0 105 -5.5 t19 -33.5q0 -95 -56.5 -169.5t-146.5 -104.5q-34 -11 -34 -43q0 -82 -56.5 -142.5t-128.5 -60.5q-14 0 -17 9t-3 51q0 26 1 36t5 16.5t14 8.5q70 10 70 96v5q0 9 -1.5 12t-10.5 4q-103 22 -166.5 101.5t-63.5 199.5z" />
<glyph unicode="&#xe8;" horiz-adv-x="696" d="M51 299v387q0 142 84.5 225.5t210.5 83.5q127 0 214 -83t87 -205v-213q0 -31 -6.5 -37t-40.5 -6h-281q-33 0 -40 -7t-7 -38v-125q0 -36 21 -58t47 -22q41 0 62 18t28 70q3 20 13.5 24t62.5 4q99 0 121 -5t22 -33q0 -123 -88.5 -207t-214.5 -84t-210.5 84.5t-84.5 226.5z M166.5 1245q2.5 16 23.5 51q20 35 34 46t32 1l248 -147q18 -12 15.5 -28.5t-23.5 -51.5q-18 -36 -32 -47.5t-32 -1.5l-250 150q-18 12 -15.5 28zM272 641q0 -27 19 -35t57 -8q40 0 61 8t21 35v64q0 34 -23 56.5t-57 22.5q-32 0 -55 -23t-23 -56v-64z" />
<glyph unicode="&#xe9;" horiz-adv-x="696" d="M51 299v387q0 142 84.5 225.5t210.5 83.5q127 0 214 -83t87 -205v-213q0 -31 -6.5 -37t-40.5 -6h-281q-33 0 -40 -7t-7 -38v-125q0 -36 21 -58t47 -22q41 0 62 18t28 70q3 20 13.5 24t62.5 4q99 0 121 -5t22 -33q0 -123 -88.5 -207t-214.5 -84t-210.5 84.5t-84.5 226.5z M164 1165.5q-2 15.5 14 28.5l248 147q14 10 28 -1t35 -46q14 -26 19 -38.5t3 -23.5t-15 -18l-244 -149q-18 -10 -32.5 1t-35.5 48q-18 36 -20 51.5zM272 641q0 -27 19 -35t57 -8q40 0 61 8t21 35v64q0 34 -23 56.5t-57 22.5q-32 0 -55 -23t-23 -56v-64z" />
<glyph unicode="&#xea;" horiz-adv-x="696" d="M51 299v387q0 142 84.5 225.5t210.5 83.5q127 0 214 -83t87 -205v-213q0 -31 -6.5 -37t-40.5 -6h-281q-33 0 -40 -7t-7 -38v-125q0 -36 21 -58t47 -22q41 0 62 18t28 70q3 20 13.5 24t62.5 4q99 0 121 -5t22 -33q0 -123 -88.5 -207t-214.5 -84t-210.5 84.5t-84.5 226.5z M110 1172.5q-2 16.5 13 29.5l196 150q16 12 29 12q11 0 27 -12l198 -150q11 -8 13.5 -18.5t-2 -24t-17.5 -39.5q-19 -40 -31.5 -51.5t-27.5 0.5l-125 109q-20 20 -35 20q-12 0 -37 -20l-123 -109q-15 -12 -27 0t-30 51q-19 36 -21 52.5zM272 641q0 -27 19 -35t57 -8 q40 0 61 8t21 35v64q0 34 -23 56.5t-57 22.5q-32 0 -55 -23t-23 -56v-64z" />
<glyph unicode="&#xeb;" horiz-adv-x="696" d="M51 299v387q0 142 84.5 225.5t210.5 83.5q127 0 214 -83t87 -205v-213q0 -31 -6.5 -37t-40.5 -6h-281q-33 0 -40 -7t-7 -38v-125q0 -36 21 -58t47 -22q41 0 62 18t28 70q3 20 13.5 24t62.5 4q99 0 121 -5t22 -33q0 -123 -88.5 -207t-214.5 -84t-210.5 84.5t-84.5 226.5z M82 1141v143q0 20 16 24.5t80 4.5q61 0 75.5 -4.5t14.5 -24.5v-143q0 -20 -13 -23.5t-77 -3.5q-68 0 -82 3.5t-14 23.5zM272 641q0 -27 19 -35t57 -8q40 0 61 8t21 35v64q0 34 -23 56.5t-57 22.5q-32 0 -55 -23t-23 -56v-64zM416 1141v143q0 20 15 24.5t77 4.5 q61 0 75.5 -4.5t14.5 -24.5v-143q0 -20 -13 -23.5t-77 -3.5q-65 0 -78.5 3.5t-13.5 23.5z" />
<glyph unicode="&#xec;" horiz-adv-x="362" d="M7.5 1245q2.5 16 23.5 51q20 36 33.5 46.5t31.5 0.5l248 -147q18 -12 15.5 -28.5t-23.5 -51.5q-18 -36 -32 -47.5t-32 -1.5l-249 150q-18 12 -15.5 28zM72 33v917q0 25 16 30t88 5q82 0 98.5 -5t16.5 -32v-911q0 -27 -15.5 -32t-99.5 -5q-77 0 -90.5 4t-13.5 29z" />
<glyph unicode="&#xed;" horiz-adv-x="362" d="M11 1165.5q-2 15.5 14 28.5l247 147q15 10 29 -1t35 -46q14 -25 19 -38.5t2.5 -24t-15.5 -17.5l-244 -149q-18 -10 -32 1t-35 48q-18 36 -20 51.5zM72 33v917q0 25 16 30t88 5q82 0 98.5 -5t16.5 -32v-911q0 -27 -15.5 -32t-99.5 -5q-77 0 -90.5 4t-13.5 29z" />
<glyph unicode="&#xee;" horiz-adv-x="362" d="M-56 1176.5q-2 16.5 13 29.5l197 150q16 12 28 12q11 0 27 -12l199 -150q11 -8 13 -19t-2.5 -24t-17.5 -39q-19 -40 -31.5 -51.5t-27.5 0.5l-125 109q-20 20 -35 20q-12 0 -37 -20l-122 -109q-15 -12 -27.5 0t-30.5 51q-19 36 -21 52.5zM72 33v917q0 25 16 30t88 5 q82 0 98.5 -5t16.5 -32v-911q0 -27 -15.5 -32t-99.5 -5q-77 0 -90.5 4t-13.5 29z" />
<glyph unicode="&#xef;" horiz-adv-x="362" d="M-80 1141v143q0 20 16 24.5t80 4.5q61 0 75.5 -4.5t14.5 -24.5v-143q0 -20 -13 -23.5t-77 -3.5q-68 0 -82 3.5t-14 23.5zM72 33v917q0 25 16 30t88 5q82 0 98.5 -5t16.5 -32v-911q0 -27 -15.5 -32t-99.5 -5q-77 0 -90.5 4t-13.5 29zM254 1141v143q0 20 15 24.5t77 4.5 q61 0 75.5 -4.5t14.5 -24.5v-143q0 -20 -13 -23.5t-77 -3.5q-65 0 -78.5 3.5t-13.5 23.5z" />
<glyph unicode="&#xf0;" horiz-adv-x="706" d="M-168 715q0 148 73 273.5t198.5 198.5t273.5 73t273.5 -73t198.5 -198.5t73 -273.5t-73 -273.5t-198.5 -198.5t-273.5 -73t-273.5 73t-198.5 198.5t-73 273.5zM-109 715q0 -99 38.5 -189t103.5 -155t155 -103.5t189 -38.5q33 0 49 2q-110 57 -186 154q-111 148 -111 330 q0 181 111 329q76 97 186 154q-16 2 -49 2q-132 0 -244 -65t-177 -176.5t-65 -243.5z" />
<glyph unicode="&#xf1;" horiz-adv-x="718" d="M61 31v917q0 24 16.5 29.5t82.5 5.5t82 -5.5t16 -29.5v-45q0 -2 2 -2t2 2q58 92 168 92q232 0 232 -309v-655q0 -23 -16 -27t-95 -4q-76 0 -92.5 4t-16.5 27v674q0 33 -24 56t-58 23q-32 0 -54.5 -22.5t-22.5 -56.5v-674q0 -23 -17 -27t-96 -4q-76 0 -92.5 4t-16.5 27z M117 1204.5q-2 12.5 8 20.5q13 21 68 58.5t104 37.5q24 0 42.5 -11t28 -24t22 -24t26.5 -11q16 0 82 66q10 15 38 -27q6 -10 13 -22q23 -34 25 -48t-9 -22q-18 -23 -71 -60.5t-99 -37.5q-25 0 -44 11t-28.5 23.5t-22 23.5t-26.5 11q-16 0 -79 -63q-6 -6 -12.5 -5t-16.5 13.5 t-25 38.5q-22 39 -24 51.5z" />
<glyph unicode="&#xf2;" horiz-adv-x="698" d="M51 299v387q0 142 85 225.5t212 83.5q128 0 213.5 -83.5t85.5 -225.5v-387q0 -142 -86 -226.5t-213 -84.5t-212 84.5t-85 226.5zM173 1242.5q3 15.5 24 51.5q20 36 33.5 46.5t31.5 0.5l248 -147q18 -12 15.5 -28.5t-23.5 -51.5q-18 -36 -32 -47.5t-32 -1.5l-250 149 q-18 13 -15 28.5zM266 281q0 -34 24 -57t58 -23q33 0 56.5 23.5t23.5 56.5v424q0 33 -23.5 56t-56.5 23q-34 0 -58 -23t-24 -56v-424z" />
<glyph unicode="&#xf3;" horiz-adv-x="698" d="M51 299v387q0 142 85 225.5t212 83.5q128 0 213.5 -83.5t85.5 -225.5v-387q0 -142 -86 -226.5t-213 -84.5t-212 84.5t-85 226.5zM172 1165.5q-2 15.5 14 28.5l248 147q15 10 29 -1t35 -46q14 -25 19 -38.5t2.5 -24t-15.5 -17.5l-244 -149q-18 -10 -32 1t-35 48 q-19 36 -21 51.5zM266 281q0 -34 24 -57t58 -23q33 0 56.5 23.5t23.5 56.5v424q0 33 -23.5 56t-56.5 23q-34 0 -58 -23t-24 -56v-424z" />
<glyph unicode="&#xf4;" horiz-adv-x="698" d="M51 299v387q0 142 85 225.5t212 83.5q128 0 213.5 -83.5t85.5 -225.5v-387q0 -142 -86 -226.5t-213 -84.5t-212 84.5t-85 226.5zM110 1172.5q-2 16.5 13 29.5l196 150q16 12 29 12q11 0 27 -12l198 -150q11 -8 13.5 -18.5t-2 -24t-17.5 -39.5q-19 -40 -31.5 -51.5 t-27.5 0.5l-125 109q-20 20 -35 20q-12 0 -37 -20l-123 -109q-15 -12 -27 0t-30 51q-19 36 -21 52.5zM266 281q0 -34 24 -57t58 -23q33 0 56.5 23.5t23.5 56.5v424q0 33 -23.5 56t-56.5 23q-34 0 -58 -23t-24 -56v-424z" />
<glyph unicode="&#xf5;" horiz-adv-x="698" d="M51 299v387q0 142 85 225.5t212 83.5q128 0 213.5 -83.5t85.5 -225.5v-387q0 -142 -86 -226.5t-213 -84.5t-212 84.5t-85 226.5zM117 1204.5q-2 12.5 8 20.5q13 21 68 58.5t104 37.5q24 0 42.5 -11t28 -24t22 -24t26.5 -11q16 0 82 66q10 15 38 -27q6 -10 13 -22 q23 -34 25 -48t-9 -22q-18 -23 -71 -60.5t-99 -37.5q-25 0 -44 11t-28.5 23.5t-22 23.5t-26.5 11q-16 0 -79 -63q-6 -6 -12.5 -5t-16.5 13.5t-25 38.5q-22 39 -24 51.5zM266 281q0 -34 24 -57t58 -23q33 0 56.5 23.5t23.5 56.5v424q0 33 -23.5 56t-56.5 23q-34 0 -58 -23 t-24 -56v-424z" />
<glyph unicode="&#xf6;" horiz-adv-x="698" d="M51 299v387q0 142 85 225.5t212 83.5q128 0 213.5 -83.5t85.5 -225.5v-387q0 -142 -86 -226.5t-213 -84.5t-212 84.5t-85 226.5zM90 1141v143q0 20 16 24.5t80 4.5q61 0 75.5 -4.5t14.5 -24.5v-143q0 -20 -13 -23.5t-77 -3.5q-68 0 -82 3.5t-14 23.5zM266 281 q0 -34 24 -57t58 -23q33 0 56.5 23.5t23.5 56.5v424q0 33 -23.5 56t-56.5 23q-34 0 -58 -23t-24 -56v-424zM424 1141v143q0 20 15 24.5t77 4.5q61 0 75.5 -4.5t14.5 -24.5v-143q0 -20 -13 -23.5t-77 -3.5q-65 0 -78.5 3.5t-13.5 23.5z" />
<glyph unicode="&#xf7;" horiz-adv-x="811" d="M-168 715q0 148 73 273.5t198.5 198.5t273.5 73t273.5 -73t198.5 -198.5t73 -273.5t-73 -273.5t-198.5 -198.5t-273.5 -73t-273.5 73t-198.5 198.5t-73 273.5zM-109 715q0 -99 38.5 -189t103.5 -155t155 -103.5t189 -38.5q33 0 49 2q-110 57 -186 154q-111 148 -111 330 q0 181 111 329q76 97 186 154q-16 2 -49 2q-132 0 -244 -65t-177 -176.5t-65 -243.5z" />
<glyph unicode="&#xf8;" horiz-adv-x="698" d="M-168 715q0 148 73 273.5t198.5 198.5t273.5 73t273.5 -73t198.5 -198.5t73 -273.5t-73 -273.5t-198.5 -198.5t-273.5 -73t-273.5 73t-198.5 198.5t-73 273.5zM-109 715q0 -99 38.5 -189t103.5 -155t155 -103.5t189 -38.5q33 0 49 2q-110 57 -186 154q-111 148 -111 330 q0 181 111 329q76 97 186 154q-16 2 -49 2q-132 0 -244 -65t-177 -176.5t-65 -243.5z" />
<glyph unicode="&#xf9;" horiz-adv-x="708" d="M51 299v653q0 23 16.5 27t94.5 4t94 -4t16 -27v-671q0 -34 23 -57t57 -23t58 23t24 57v671q0 23 15.5 27t91.5 4q77 0 92.5 -4t15.5 -27v-917q0 -24 -15.5 -29.5t-80.5 -5.5q-66 0 -82 5.5t-16 29.5v47v2q-2 0 -2 -2q-25 -41 -68 -67.5t-98 -26.5q-236 0 -236 311z M166.5 1245q2.5 16 23.5 51q20 35 34 46t32 1l248 -147q18 -12 15.5 -28.5t-23.5 -51.5q-18 -36 -32 -47.5t-32 -1.5l-250 150q-18 12 -15.5 28z" />
<glyph unicode="&#xfa;" horiz-adv-x="708" d="M51 299v653q0 23 16.5 27t94.5 4t94 -4t16 -27v-671q0 -34 23 -57t57 -23t58 23t24 57v671q0 23 15.5 27t91.5 4q77 0 92.5 -4t15.5 -27v-917q0 -24 -15.5 -29.5t-80.5 -5.5q-66 0 -82 5.5t-16 29.5v47v2q-2 0 -2 -2q-25 -41 -68 -67.5t-98 -26.5q-236 0 -236 311z M176 1165.5q-2 15.5 14 28.5l248 147q15 10 29 -1t35 -46q14 -25 19 -38.5t2.5 -24t-15.5 -17.5l-244 -149q-18 -10 -32 1t-35 48q-19 36 -21 51.5z" />
<glyph unicode="&#xfb;" horiz-adv-x="708" d="M51 299v653q0 23 16.5 27t94.5 4t94 -4t16 -27v-671q0 -34 23 -57t57 -23t58 23t24 57v671q0 23 15.5 27t91.5 4q77 0 92.5 -4t15.5 -27v-917q0 -24 -15.5 -29.5t-80.5 -5.5q-66 0 -82 5.5t-16 29.5v47v2q-2 0 -2 -2q-25 -41 -68 -67.5t-98 -26.5q-236 0 -236 311z M110 1172.5q-2 16.5 13 29.5l196 150q16 12 29 12q11 0 27 -12l198 -150q11 -8 13.5 -18.5t-2 -24t-17.5 -39.5q-19 -40 -31.5 -51.5t-27.5 0.5l-125 109q-20 20 -35 20q-12 0 -37 -20l-123 -109q-15 -12 -27 0t-30 51q-19 36 -21 52.5z" />
<glyph unicode="&#xfc;" horiz-adv-x="708" d="M51 299v653q0 23 16.5 27t94.5 4t94 -4t16 -27v-671q0 -34 23 -57t57 -23t58 23t24 57v671q0 23 15.5 27t91.5 4q77 0 92.5 -4t15.5 -27v-917q0 -24 -15.5 -29.5t-80.5 -5.5q-66 0 -82 5.5t-16 29.5v47v2q-2 0 -2 -2q-25 -41 -68 -67.5t-98 -26.5q-236 0 -236 311z M96 1141v143q0 20 16.5 24.5t80.5 4.5q61 0 75.5 -4.5t14.5 -24.5v-143q0 -20 -12.5 -23.5t-77.5 -3.5q-68 0 -82.5 3.5t-14.5 23.5zM430 1141v143q0 20 15 24.5t77 4.5q61 0 75.5 -4.5t14.5 -24.5v-143q0 -20 -13 -23.5t-77 -3.5q-65 0 -78.5 3.5t-13.5 23.5z" />
<glyph unicode="&#xfd;" horiz-adv-x="673" d="M20 948q-4 24 12.5 29.5t90.5 5.5t90.5 -5t22.5 -30l88 -526q3 -10 12 -10t12 12l90 524q4 25 21.5 30t91.5 5q72 0 89 -5.5t11 -29.5l-327 -1327q-6 -22 -24.5 -26.5t-78.5 -4.5q-62 0 -77.5 7t-10.5 34l78 367q15 83 -2 149zM176 1165.5q-2 15.5 14 28.5l248 147 q15 10 29 -1t35 -46q14 -25 19 -38.5t2.5 -24t-15.5 -17.5l-244 -149q-18 -10 -32 1t-35 48q-19 36 -21 51.5z" />
<glyph unicode="&#xfe;" horiz-adv-x="708" d="M-168 715q0 148 73 273.5t198.5 198.5t273.5 73t273.5 -73t198.5 -198.5t73 -273.5t-73 -273.5t-198.5 -198.5t-273.5 -73t-273.5 73t-198.5 198.5t-73 273.5zM-109 715q0 -99 38.5 -189t103.5 -155t155 -103.5t189 -38.5q33 0 49 2q-110 57 -186 154q-111 148 -111 330 q0 181 111 329q76 97 186 154q-16 2 -49 2q-132 0 -244 -65t-177 -176.5t-65 -243.5z" />
<glyph unicode="&#xff;" horiz-adv-x="673" d="M20 948q-4 24 12.5 29.5t90.5 5.5t90.5 -5t22.5 -30l88 -526q3 -10 12 -10t12 12l90 524q4 25 21.5 30t91.5 5q72 0 89 -5.5t11 -29.5l-327 -1327q-6 -22 -24.5 -26.5t-78.5 -4.5q-62 0 -77.5 7t-10.5 34l78 367q15 83 -2 149zM82 1141v143q0 20 16 24.5t80 4.5 q61 0 75.5 -4.5t14.5 -24.5v-143q0 -20 -13 -23.5t-77 -3.5q-68 0 -82 3.5t-14 23.5zM416 1141v143q0 20 15 24.5t77 4.5q61 0 75.5 -4.5t14.5 -24.5v-143q0 -20 -13 -23.5t-77 -3.5q-65 0 -78.5 3.5t-13.5 23.5z" />
<glyph unicode="&#x152;" horiz-adv-x="995" d="M68 289v860q0 136 77.5 217.5t194.5 81.5q41 0 73.5 -8.5t47.5 -18t28.5 -18t22.5 -8.5q8 0 18 6.5t20.5 14t35.5 14t59 6.5h281q20 0 24 -17t4 -86q0 -70 -4 -86t-24 -16h-219q-33 0 -40.5 -6t-7.5 -35v-297q0 -29 8 -36t40 -7h110q20 0 23.5 -15t3.5 -87q0 -71 -4 -87 t-23 -16h-110q-33 0 -40.5 -6.5t-7.5 -36.5v-354q0 -29 8 -36t40 -7h219q20 0 24 -16t4 -85q0 -70 -4 -87t-24 -17h-281q-34 0 -59 7t-35.5 15.5t-20.5 15.5t-18 7q-10 0 -28 -13.5t-54.5 -27.5t-89.5 -14q-117 0 -194.5 81.5t-77.5 217.5zM287 272q0 -33 23 -54t55 -21 q31 0 53.5 20t23.5 51v901q-2 31 -24 52.5t-53 21.5t-54.5 -23t-23.5 -55v-893z" />
<glyph unicode="&#x153;" horiz-adv-x="1075" d="M51 295v389q0 142 86 226.5t213 84.5q46 0 82 -10.5t52.5 -23t30 -23t20.5 -10.5t22 10.5t32.5 23t55 23t84.5 10.5q124 0 210.5 -83t86.5 -205v-215q0 -29 -7.5 -36t-41.5 -7h-279q-34 0 -41.5 -7t-7.5 -36v-125q0 -36 22.5 -58t49.5 -22q41 0 61.5 18t26.5 68 q5 21 14.5 24.5t61.5 3.5h17q86 0 105 -5.5t19 -33.5q0 -121 -86.5 -204.5t-210.5 -83.5q-60 0 -102.5 16.5t-63.5 32.5t-28 16t-20.5 -10t-30 -22.5t-52.5 -22.5t-82 -10q-127 0 -213 83t-86 224zM268 281q0 -33 23.5 -56.5t58.5 -23.5q33 0 56.5 23.5t23.5 56.5v10v4v389 v8v10q0 34 -23 57t-57 23q-35 0 -58.5 -23t-23.5 -57v-421zM649 639q0 -28 19.5 -35.5t60.5 -7.5q21 0 32.5 1t24.5 5t19 13t6 24v63q0 34 -23.5 57t-58.5 23q-33 0 -56.5 -23.5t-23.5 -56.5v-63z" />
<glyph unicode="&#x178;" horiz-adv-x="651" d="M31 1393q-5 26 11.5 34.5t86.5 8.5q54 0 79 -5t30.5 -12t9.5 -26l65 -506q0 -8 11 -8q9 0 12 8l65 506q2 19 7 26t30.5 12t81.5 5q69 0 86 -8.5t12 -34.5l-163 -717q-21 -105 -21 -172v-477q0 -20 -16 -23.5t-94 -3.5q-77 0 -93 3.5t-16 23.5v477q0 72 -20 172zM76 1563 v143q0 20 16 24.5t80 4.5q61 0 75.5 -4.5t14.5 -24.5v-143q0 -20 -13 -23.5t-77 -3.5q-68 0 -82 3.5t-14 23.5zM410 1563v143q0 20 15 24.5t77 4.5q61 0 75.5 -4.5t14.5 -24.5v-143q0 -20 -13 -23.5t-77 -3.5q-65 0 -78.5 3.5t-13.5 23.5z" />
<glyph unicode="&#x2c6;" horiz-adv-x="698" d="M108 1602.5q-2 16.5 13 29.5l196 150q16 12 29 12q11 0 27 -12l198 -150q11 -8 13.5 -18.5t-2 -24t-17.5 -39.5q-19 -40 -31.5 -51.5t-27.5 0.5l-125 109q-20 20 -35 20q-12 0 -37 -20l-123 -109q-15 -12 -27 0t-30 51q-19 36 -21 52.5z" />
<glyph unicode="&#x2dc;" horiz-adv-x="698" d="M117 1204.5q-2 12.5 8 20.5q13 21 68 58.5t104 37.5q24 0 42.5 -11t28 -24t22 -24t26.5 -11q16 0 82 66q10 15 38 -27q6 -10 13 -22q23 -34 25 -48t-9 -22q-18 -23 -71 -60.5t-99 -37.5q-25 0 -44 11t-28.5 23.5t-22 23.5t-26.5 11q-16 0 -79 -63q-6 -6 -12.5 -5 t-16.5 13.5t-25 38.5q-22 39 -24 51.5z" />
<glyph unicode="&#x2000;" horiz-adv-x="897" />
<glyph unicode="&#x2001;" horiz-adv-x="1794" />
<glyph unicode="&#x2002;" horiz-adv-x="897" />
<glyph unicode="&#x2003;" horiz-adv-x="1794" />
<glyph unicode="&#x2004;" horiz-adv-x="598" />
<glyph unicode="&#x2005;" horiz-adv-x="448" />
<glyph unicode="&#x2006;" horiz-adv-x="299" />
<glyph unicode="&#x2007;" horiz-adv-x="299" />
<glyph unicode="&#x2008;" horiz-adv-x="224" />
<glyph unicode="&#x2009;" horiz-adv-x="358" />
<glyph unicode="&#x200a;" horiz-adv-x="99" />
<glyph unicode="&#x2010;" horiz-adv-x="462" d="M39 522q0 48 4 58t25 10h319q21 0 26 -11.5t5 -56.5q0 -47 -5 -58t-26 -11h-319q-21 0 -25 10t-4 59z" />
<glyph unicode="&#x2011;" horiz-adv-x="462" d="M39 522q0 48 4 58t25 10h319q21 0 26 -11.5t5 -56.5q0 -47 -5 -58t-26 -11h-319q-21 0 -25 10t-4 59z" />
<glyph unicode="&#x2012;" horiz-adv-x="462" d="M39 522q0 48 4 58t25 10h319q21 0 26 -11.5t5 -56.5q0 -47 -5 -58t-26 -11h-319q-21 0 -25 10t-4 59z" />
<glyph unicode="&#x2013;" horiz-adv-x="1024" d="M39 522q0 48 4 58t25 10h903q21 0 25.5 -11t4.5 -57q0 -47 -4.5 -58t-25.5 -11h-903q-21 0 -25 10t-4 59z" />
<glyph unicode="&#x2014;" horiz-adv-x="1607" d="M39 522q0 48 4 58t25 10h1484q21 0 26 -11.5t5 -56.5q0 -47 -5 -58t-26 -11h-1484q-21 0 -25 10t-4 59z" />
<glyph unicode="&#x2018;" horiz-adv-x="323" d="M51 1069v107q0 55 30 121t65 107.5t53 41.5q29 0 37 -4t4 -23q-6 -26 -35 -139q-3 -10 5.5 -13t21 -2.5t23.5 -6.5t11 -23v-166q0 -23 -16 -27t-90 -4q-77 0 -93 4t-16 27z" />
<glyph unicode="&#x2019;" horiz-adv-x="323" d="M51 1235v170q0 21 15.5 25t91.5 4q77 0 92.5 -4t15.5 -25v-111q0 -55 -30 -120t-65.5 -105.5t-55.5 -40.5t-27 1t-11 6.5t-1 17.5q3 11 16 59t21 80q3 10 -6 12.5t-21.5 2t-23.5 6t-11 22.5z" />
<glyph unicode="&#x201a;" horiz-adv-x="323" d="M51 31v170q0 21 15.5 24.5t93.5 3.5q76 0 91 -3.5t15 -24.5v-111q0 -54 -29.5 -119.5t-64.5 -107t-55 -41.5q-27 0 -35 4t-4 22q14 56 37 140q2 10 -7.5 13t-22 2.5t-23.5 5.5t-11 22z" />
<glyph unicode="&#x201c;" horiz-adv-x="585" d="M51 1069v107q0 55 30 121t65 107.5t53 41.5q29 0 37 -4t4 -23q-6 -26 -35 -139q-3 -10 5.5 -13t21 -2.5t23.5 -6.5t11 -23v-166q0 -23 -16 -27t-90 -4q-77 0 -93 4t-16 27zM311 1069v107q0 55 30 121t65.5 107.5t54.5 41.5q29 0 36.5 -4t4.5 -23q-3 -11 -17 -60t-22 -79 q-2 -10 7 -13t21 -2.5t22.5 -6.5t10.5 -23v-166q0 -23 -15 -27t-89 -4q-77 0 -93 4t-16 27z" />
<glyph unicode="&#x201d;" horiz-adv-x="585" d="M51 1235v170q0 21 15.5 25t91.5 4q77 0 92.5 -4t15.5 -25v-111q0 -55 -30 -120t-65.5 -105.5t-55.5 -40.5t-27 1t-11 6.5t-1 17.5q3 11 16 59t21 80q3 10 -6 12.5t-21.5 2t-23.5 6t-11 22.5zM311 1235v170q0 21 15.5 25t91.5 4t92 -4t16 -25v-111q0 -55 -30 -120 t-65.5 -105.5t-55.5 -40.5h-16.5t-12 1.5t-8 4t-3 7.5t2.5 12q3 12 15.5 60t19.5 79q3 10 -5.5 12.5t-21.5 2t-24 6t-11 22.5z" />
<glyph unicode="&#x201e;" horiz-adv-x="585" d="M51 31v170q0 21 15.5 24.5t93.5 3.5q76 0 91 -3.5t15 -24.5v-111q0 -54 -29.5 -119.5t-64.5 -107t-55 -41.5q-27 0 -35 4t-4 22q14 56 37 140q2 10 -7.5 13t-22 2.5t-23.5 5.5t-11 22zM313 31v170q0 21 15.5 24.5t93.5 3.5q76 0 91 -3.5t15 -24.5v-111 q0 -54 -29.5 -119.5t-64.5 -107t-55 -41.5q-27 0 -35 4t-4 22q14 56 37 140q2 10 -7.5 13t-22 2.5t-23.5 5.5t-11 22z" />
<glyph unicode="&#x2022;" horiz-adv-x="557" d="M27 539q0 104 75 179t179 75t179 -75t75 -179t-75 -179t-179 -75t-179 75t-75 179z" />
<glyph unicode="&#x2026;" horiz-adv-x="989" d="M49 33v168q0 21 15 24.5t92 3.5q78 0 93 -3.5t15 -24.5v-168q0 -23 -17.5 -28t-90.5 -5q-72 0 -89.5 5t-17.5 28zM375 33v168q0 21 14.5 24.5t91.5 3.5q78 0 93.5 -3.5t15.5 -24.5v-168q0 -23 -17.5 -28t-91.5 -5q-72 0 -89 5t-17 28zM729 33v168q0 21 15 24.5t92 3.5 q78 0 93 -3.5t15 -24.5v-168q0 -23 -17.5 -28t-90.5 -5q-72 0 -89.5 5t-17.5 28z" />
<glyph unicode="&#x202f;" horiz-adv-x="358" />
<glyph unicode="&#x2039;" horiz-adv-x="362" d="M20 514q0 11 15 41l178 289q15 20 31.5 19.5t52.5 -25.5q34 -20 40 -37.5t-7 -34.5q-105 -174 -125 -205q-21 -39 -21 -47t21 -47l125 -203q13 -17 7 -34t-40 -40q-36 -25 -52.5 -25.5t-31.5 19.5q-168 273 -178 289q-15 30 -15 41z" />
<glyph unicode="&#x203a;" horiz-adv-x="362" d="M32 230q-6 17 7 34q107 172 125 203q22 32 22 47t-22 47l-125 205q-13 17 -7 34.5t40 37.5q36 24 54 25.5t30 -19.5q166 -273 176 -289q16 -21 16 -41t-16 -41l-176 -289q-12 -21 -30 -19.5t-54 25.5q-34 23 -40 40z" />
<glyph unicode="&#x205f;" horiz-adv-x="448" />
<glyph unicode="&#x2122;" horiz-adv-x="675" d="M51 1399q0 37 10 37h191q7 0 8.5 -5.5t1.5 -31.5q0 -35 -10 -35h-33q-10 0 -14 -0.5t-6 -4t-2 -11.5v-410q0 -6 -6 -7t-35 -1q-27 0 -33 1t-6 7v399q0 20 -3 23.5t-22 3.5h-31q-7 0 -8.5 5t-1.5 30zM297 938v481q0 10 6 13.5t29 3.5q16 0 24.5 -3t11.5 -7t5 -11 q1 -3 9.5 -29t21 -64t20.5 -62q0 -3 2 -3q4 0 4 3q8 24 20.5 62t21 64t9.5 29q2 7 5 11t11.5 7t24.5 3q23 0 29 -3.5t6 -13.5v-481q0 -6 -6 -7t-33 -1t-33 1t-6 7v289q0 6 -6 6q-2 -4 -4 -6q-15 -60 -27 -97q-1 -6 -2 -8t-4 -3t-10 -1q-10 0 -12 2t-4 10q0 3 -4 17.5 t-10.5 38.5t-10.5 41q0 6 -6 6q-4 0 -4 -6v-289q0 -6 -6 -7t-33 -1t-33 1t-6 7z" />
<glyph unicode="&#xe000;" horiz-adv-x="983" d="M0 0v983h983v-983h-983z" />
<glyph unicode="&#xfb01;" horiz-adv-x="823" d="M-168 715q0 148 73 273.5t198.5 198.5t273.5 73t273.5 -73t198.5 -198.5t73 -273.5t-73 -273.5t-198.5 -198.5t-273.5 -73t-273.5 73t-198.5 198.5t-73 273.5zM-109 715q0 -99 38.5 -189t103.5 -155t155 -103.5t189 -38.5q33 0 49 2q-110 57 -186 154q-111 148 -111 330 q0 181 111 329q76 97 186 154q-16 2 -49 2q-132 0 -244 -65t-177 -176.5t-65 -243.5z" />
<glyph unicode="&#xfb02;" horiz-adv-x="823" d="M-168 715q0 148 73 273.5t198.5 198.5t273.5 73t273.5 -73t198.5 -198.5t73 -273.5t-73 -273.5t-198.5 -198.5t-273.5 -73t-273.5 73t-198.5 198.5t-73 273.5zM-109 715q0 -99 38.5 -189t103.5 -155t155 -103.5t189 -38.5q33 0 49 2q-110 57 -186 154q-111 148 -111 330 q0 181 111 329q76 97 186 154q-16 2 -49 2q-132 0 -244 -65t-177 -176.5t-65 -243.5z" />
</font>
</defs>
</svg>
